<svg xmlns="http://www.w3.org/2000/svg" width="237.331" height="197.478" viewBox="0 0 237.331 197.478"><g transform="translate(20687 22277.26)"><g transform="translate(-20687 -22098.742)"><path d="M115.543,326.538h2.934V344.4h-2.3L107.76,332.28V344.4h-2.934V326.538h2.238l8.479,12.2Z" transform="translate(-104.826 -325.772)" fill="#448843"/><path d="M140.563,334.623h2.755v12.76h-2.755v-1.838a5.163,5.163,0,0,1-4.466,2.169,5.984,5.984,0,0,1-4.492-1.952,7.027,7.027,0,0,1,0-9.532,6,6,0,0,1,4.492-1.939,5.185,5.185,0,0,1,4.466,2.144Zm-6.916,9.3a4.161,4.161,0,0,0,5.767,0,4.291,4.291,0,0,0,0-5.844,4.164,4.164,0,0,0-5.767,0,4.293,4.293,0,0,0,0,5.844Z" transform="translate(-114.408 -328.754)" fill="#448843"/><path d="M162.266,335.252H159.1v6.124a1.528,1.528,0,0,0,.357,1.135,1.6,1.6,0,0,0,1.059.383,17.386,17.386,0,0,0,1.748-.013v2.475q-3.164.383-4.542-.549t-1.378-3.432v-6.124H154V332.6h2.348v-2.755l2.756-.817V332.6h3.164Z" transform="translate(-123.735 -326.729)" fill="#448843"/><path d="M179.383,334.83h2.756v12.76h-2.756v-1.633a4.344,4.344,0,0,1-3.955,1.965,4.7,4.7,0,0,1-3.547-1.4,5.32,5.32,0,0,1-1.352-3.853V334.83h2.756v7.554a2.968,2.968,0,0,0,.766,2.194,2.827,2.827,0,0,0,2.093.766,3.149,3.149,0,0,0,2.347-.906,3.8,3.8,0,0,0,.893-2.769Z" transform="translate(-130.092 -328.961)" fill="#448843"/><path d="M197.067,336.831a3.9,3.9,0,0,1,3.93-2.374v2.986a4.086,4.086,0,0,0-2.756.752,3.254,3.254,0,0,0-1.174,2.82v6.431h-2.755v-12.76h2.755Z" transform="translate(-139.238 -328.818)" fill="#448843"/><path d="M215.829,334.623h2.755v12.76h-2.755v-1.838a5.163,5.163,0,0,1-4.466,2.169,5.985,5.985,0,0,1-4.492-1.952,7.029,7.029,0,0,1,0-9.532,6,6,0,0,1,4.492-1.939,5.185,5.185,0,0,1,4.466,2.144Zm-6.916,9.3a4.161,4.161,0,0,0,5.767,0,4.291,4.291,0,0,0,0-5.844,4.164,4.164,0,0,0-5.767,0,4.293,4.293,0,0,0,0,5.844Z" transform="translate(-143.352 -328.754)" fill="#448843"/><path d="M231.337,343.923V325.294h2.755v18.629Z" transform="translate(-153.476 -325.294)" fill="#448843"/><path d="M260.508,335.138a4.516,4.516,0,0,1,2.5,4.16,4.785,4.785,0,0,1-1.556,3.648,5.367,5.367,0,0,1-3.8,1.455h-7.655V326.538h7.094a5.242,5.242,0,0,1,3.713,1.416,4.634,4.634,0,0,1,1.518,3.535A4.276,4.276,0,0,1,260.508,335.138Zm-3.42-5.844h-4.159v4.7h4.159a2.2,2.2,0,0,0,1.633-.676,2.437,2.437,0,0,0,0-3.343A2.2,2.2,0,0,0,257.088,329.294Zm.561,12.351a2.3,2.3,0,0,0,1.723-.727,2.592,2.592,0,0,0,0-3.547,2.3,2.3,0,0,0-1.723-.727h-4.72v5Z" transform="translate(-160.651 -325.772)" fill="#448843"/><path d="M282.067,334.83h2.756v12.76h-2.756v-1.633a4.345,4.345,0,0,1-3.956,1.965,4.7,4.7,0,0,1-3.547-1.4,5.32,5.32,0,0,1-1.353-3.853V334.83h2.756v7.554a2.969,2.969,0,0,0,.766,2.194,2.828,2.828,0,0,0,2.092.766,3.149,3.149,0,0,0,2.348-.906,3.8,3.8,0,0,0,.893-2.769Z" transform="translate(-169.579 -328.961)" fill="#448843"/><path d="M298.316,336.831a3.9,3.9,0,0,1,3.93-2.374v2.986a4.088,4.088,0,0,0-2.756.752,3.256,3.256,0,0,0-1.174,2.82v6.431H295.56v-12.76h2.756Z" transform="translate(-178.173 -328.818)" fill="#448843"/><path d="M311.557,329a1.761,1.761,0,0,1-3-1.238,1.711,1.711,0,0,1,.511-1.238,1.756,1.756,0,0,1,2.5,0,1.713,1.713,0,0,1,.51,1.238A1.693,1.693,0,0,1,311.557,329Zm-2.615,15.2v-12.76H311.7v12.76Z" transform="translate(-183.172 -325.565)" fill="#448843"/><path d="M326.592,334.623h2.756v12.76h-2.756v-1.838a5.162,5.162,0,0,1-4.465,2.169,5.984,5.984,0,0,1-4.492-1.952,7.027,7.027,0,0,1,0-9.532,6,6,0,0,1,4.492-1.939,5.183,5.183,0,0,1,4.465,2.144Zm-6.915,9.3a4.161,4.161,0,0,0,5.767,0,4.293,4.293,0,0,0,0-5.844,4.164,4.164,0,0,0-5.767,0,4.291,4.291,0,0,0,0,5.844Z" transform="translate(-185.946 -328.754)" fill="#448843"/><path d="M341.271,343.923V325.294h2.756v18.629Z" transform="translate(-195.751 -325.294)" fill="#448843"/><path d="M376.748,334.956v1.225a7.976,7.976,0,0,1-2.424,6.01A8.74,8.74,0,0,1,368,344.525a9.275,9.275,0,0,1-6.826-2.68,9.381,9.381,0,0,1,0-13.155A9.063,9.063,0,0,1,367.842,326a9.245,9.245,0,0,1,4.568,1.148,8.377,8.377,0,0,1,3.215,3.088l-2.526,1.454a5.308,5.308,0,0,0-2.118-2.054,6.369,6.369,0,0,0-3.139-.778,6.211,6.211,0,0,0-4.619,1.837,6.277,6.277,0,0,0-1.812,4.593,6.171,6.171,0,0,0,1.825,4.568,6.493,6.493,0,0,0,4.785,1.812,6.311,6.311,0,0,0,3.866-1.11,4.886,4.886,0,0,0,1.9-2.973h-5.971v-2.629Z" transform="translate(-202.368 -325.565)" fill="#448843"/><path d="M394.154,336.831a3.9,3.9,0,0,1,3.93-2.374v2.986a4.088,4.088,0,0,0-2.756.752,3.255,3.255,0,0,0-1.174,2.82v6.431H391.4v-12.76h2.756Z" transform="translate(-215.028 -328.818)" fill="#448843"/><path d="M408.79,347.714a6.536,6.536,0,0,1-4.772-1.94,6.778,6.778,0,0,1,0-9.544,6.856,6.856,0,0,1,9.557,0,6.712,6.712,0,0,1-4.785,11.484Zm-2.832-3.828a4.068,4.068,0,0,0,5.665,0,4.194,4.194,0,0,0,0-5.767,4.068,4.068,0,0,0-5.665,0,4.2,4.2,0,0,0,0,5.767Z" transform="translate(-219.126 -328.754)" fill="#448843"/><path d="M434.831,334.83h2.756v12.76h-2.756v-1.633a4.345,4.345,0,0,1-3.955,1.965,4.7,4.7,0,0,1-3.547-1.4,5.32,5.32,0,0,1-1.353-3.853V334.83h2.756v7.554a2.968,2.968,0,0,0,.766,2.194,2.826,2.826,0,0,0,2.092.766,3.149,3.149,0,0,0,2.348-.906,3.8,3.8,0,0,0,.893-2.769Z" transform="translate(-228.325 -328.961)" fill="#448843"/><path d="M454.207,334.291a4.7,4.7,0,0,1,3.547,1.4,5.322,5.322,0,0,1,1.353,3.853v7.834h-2.756v-7.554a2.968,2.968,0,0,0-.766-2.195,2.828,2.828,0,0,0-2.093-.765,3.149,3.149,0,0,0-2.347.905,3.8,3.8,0,0,0-.894,2.768v6.84H447.5v-12.76h2.755v1.633A4.345,4.345,0,0,1,454.207,334.291Z" transform="translate(-236.601 -328.754)" fill="#448843"/><path d="M479.212,326.538h2.755V344.4h-2.755v-1.838a5.163,5.163,0,0,1-4.466,2.17,5.985,5.985,0,0,1-4.492-1.952,7.028,7.028,0,0,1,0-9.532,6,6,0,0,1,4.492-1.939,5.185,5.185,0,0,1,4.466,2.144Zm-6.916,14.4a4.161,4.161,0,0,0,5.768,0,4.291,4.291,0,0,0,0-5.844,4.164,4.164,0,0,0-5.768,0,4.292,4.292,0,0,0,0,5.844Z" transform="translate(-244.636 -325.772)" fill="#448843"/></g><g transform="translate(-20622.818 -22211.621)"><path d="M230.332,160.875a10.744,10.744,0,1,1,3.094-7.537A10.248,10.248,0,0,1,230.332,160.875Zm-13.2-1.862a8.073,8.073,0,0,0,11.29,0,8.257,8.257,0,0,0,0-11.379,8.072,8.072,0,0,0-11.29,0,8.257,8.257,0,0,0,0,11.379Z" transform="translate(-209.98 -142.194)" fill="#36573e"/><path d="M248.759,163.291V141.883h2.551v21.408Z" transform="translate(-224.052 -141.883)" fill="#36573e"/><path d="M269.916,143.313h2.551v20.528h-2.551v-2.522a6.223,6.223,0,0,1-5.543,2.9,7.035,7.035,0,0,1-5.249-2.243,7.977,7.977,0,0,1,0-10.938,7.034,7.034,0,0,1,5.249-2.243,6.221,6.221,0,0,1,5.543,2.9Zm-5.22,18.445a5.029,5.029,0,0,0,3.724-1.51,5.422,5.422,0,0,0,0-7.478,5.311,5.311,0,0,0-7.419,0,5.42,5.42,0,0,0,0,7.478A4.993,4.993,0,0,0,264.7,161.758Z" transform="translate(-227.204 -142.433)" fill="#36573e"/><path d="M303.474,143.313a6.6,6.6,0,1,1,0,13.2h-4.721v7.332h-2.727V143.313Zm0,10.645a3.739,3.739,0,0,0,2.815-1.158,4.318,4.318,0,0,0,0-5.792,3.763,3.763,0,0,0-2.815-1.143h-4.721v8.094Z" transform="translate(-242.229 -142.433)" fill="#36573e"/><path d="M331.716,152.6h2.552v14.663h-2.552v-2.522a6.223,6.223,0,0,1-5.543,2.9,7.035,7.035,0,0,1-5.249-2.243,7.977,7.977,0,0,1,0-10.938,7.035,7.035,0,0,1,5.249-2.243,6.221,6.221,0,0,1,5.543,2.9Zm-5.22,12.58a5.029,5.029,0,0,0,3.724-1.51,5.422,5.422,0,0,0,0-7.478,5.311,5.311,0,0,0-7.419,0,5.422,5.422,0,0,0,0,7.478A4.993,4.993,0,0,0,326.5,165.184Z" transform="translate(-250.969 -145.859)" fill="#36573e"/><path d="M351.848,155.141a4.6,4.6,0,0,1,4.575-2.728v2.669a4.62,4.62,0,0,0-3.226,1,4.217,4.217,0,0,0-1.349,3.49v7.771H349.3V152.677h2.551Z" transform="translate(-262.715 -145.932)" fill="#36573e"/><path d="M374.471,163.841H371.3l-6.687-6.943v6.943h-2.551V143.313h2.551v12.32l6.335-6.455h3.284l-7.009,7.1Z" transform="translate(-267.625 -142.433)" fill="#36573e"/><path d="M227.823,188.486v20.529h-2.7V192.973l-6.715,11.174-.334-.012-6.735-11.176v16.056h-2.727V188.486h3.079l6.567,10.9,6.516-10.9Z" transform="translate(-208.615 -159.804)" fill="#36573e"/><path d="M245.913,206.283a4.83,4.83,0,0,0,1.8,3.05,5.6,5.6,0,0,0,3.5,1.085,4.589,4.589,0,0,0,4.223-2.141l2.17,1.232a7.164,7.164,0,0,1-6.452,3.314,7.674,7.674,0,0,1-5.674-2.185,7.489,7.489,0,0,1-2.185-5.527,7.587,7.587,0,0,1,2.141-5.514,7.391,7.391,0,0,1,5.542-2.2,6.748,6.748,0,0,1,5.264,2.272,7.912,7.912,0,0,1,2.038,5.47,7.737,7.737,0,0,1-.088,1.144Zm5.073-6.481a4.871,4.871,0,0,0-5.073,4.252h9.795a4.889,4.889,0,0,0-1.643-3.167A4.7,4.7,0,0,0,250.986,199.8Z" transform="translate(-221.954 -163.231)" fill="#36573e"/><path d="M284,197.778h2.551v14.663H284v-2.522a6.223,6.223,0,0,1-5.543,2.9,7.036,7.036,0,0,1-5.25-2.243,7.979,7.979,0,0,1,0-10.938,7.034,7.034,0,0,1,5.25-2.243A6.223,6.223,0,0,1,284,200.3Zm-5.22,12.581a5.027,5.027,0,0,0,3.724-1.51,5.42,5.42,0,0,0,0-7.478,5.309,5.309,0,0,0-7.419,0,5.421,5.421,0,0,0,0,7.478A4.992,4.992,0,0,0,278.777,210.359Z" transform="translate(-232.619 -163.231)" fill="#36573e"/><path d="M312.252,188.486H314.8v20.529h-2.551v-2.522a6.222,6.222,0,0,1-5.543,2.9,7.034,7.034,0,0,1-5.249-2.243,7.977,7.977,0,0,1,0-10.938,7.032,7.032,0,0,1,5.249-2.243,6.222,6.222,0,0,1,5.543,2.9Zm-5.22,18.446a5.028,5.028,0,0,0,3.725-1.51,5.421,5.421,0,0,0,0-7.478,5.309,5.309,0,0,0-7.419,0,5.42,5.42,0,0,0,0,7.478A4.991,4.991,0,0,0,307.032,206.932Z" transform="translate(-243.484 -159.804)" fill="#36573e"/><path d="M340.741,210.594a7.843,7.843,0,0,1-10.953,0,7.713,7.713,0,0,1,5.469-13.2,7.516,7.516,0,0,1,5.484,2.229,7.788,7.788,0,0,1,0,10.968Zm-5.484-.264a5.108,5.108,0,1,0-3.666-1.495A5.022,5.022,0,0,0,335.258,210.33Z" transform="translate(-254.35 -163.231)" fill="#36573e"/><path d="M371.208,198.016H373.6l-4.271,14.663h-2.61l-3.5-11-3.477,11h-2.73L352.7,198.016h2.671l3.223,11.143,3.461-11.143h2.516l3.452,11.147Z" transform="translate(-264.024 -163.469)" fill="#36573e"/></g><g transform="translate(-20649.109 -22277.26)"><g transform="translate(11.22 95.834)"><path d="M184.8,191.178c-.01-.3-.119-.186-.143-.23C184.718,191.445,184.831,191.163,184.8,191.178Z" transform="translate(-184.657 -190.948)" fill="#448843"/><path d="M185.982,199.186l-.057-.081.2.7Z" transform="translate(-185.145 -194.085)" fill="#448843"/><path d="M186.776,204.773a17.245,17.245,0,0,0-.364-2.452l.023-.14-.217-.341C186.406,202.819,186.7,204.076,186.776,204.773Z" transform="translate(-185.258 -195.136)" fill="#448843"/><path d="M187.189,210.295c.045-.166.174.507-.092-.567,0,.053,0,.073,0,.106C187.118,209.931,187.144,210.064,187.189,210.295Z" transform="translate(-185.595 -198.169)" fill="#448843"/><path d="M187.071,209.8c-.1-.475,0,.325,0,0Z" transform="translate(-185.568 -198.139)" fill="#448843"/><path d="M187.858,213.055l-.225-.6c-.012.14.119.7.035.5C187.866,213.578,187.877,213.435,187.858,213.055Z" transform="translate(-185.801 -199.217)" fill="#448843"/><path d="M188.4,214.132l-.111-.313A.549.549,0,0,0,188.4,214.132Z" transform="translate(-186.054 -199.743)" fill="#448843"/><path d="M187.913,212.737l.233.666c.009-.1.069-.122-.1-.307C188.116,213.138,188.027,213.017,187.913,212.737Z" transform="translate(-185.909 -199.327)" fill="#448843"/><path d="M187.686,211.476c-.047-.358-.128-.812.092-.207C187.49,210.085,187.378,210.292,187.686,211.476Z" transform="translate(-185.751 -198.458)" fill="#448843"/><path d="M187.425,206.371l-.038-.476-.13-.395C187.312,205.7,187.366,206.412,187.425,206.371Z" transform="translate(-185.656 -196.544)" fill="#448843"/><path d="M189.518,219.256c.052.025.046-.24.084-.3l-.184-.438A2.635,2.635,0,0,1,189.518,219.256Z" transform="translate(-186.488 -201.55)" fill="#448843"/><path d="M189.717,219.221l.274.654C189.816,219.269,189.75,219.169,189.717,219.221Z" transform="translate(-186.603 -201.816)" fill="#448843"/><path d="M188.593,213.74l-.434-1.083.49,1.3Z" transform="translate(-186.004 -199.296)" fill="#448843"/><path d="M190.816,223.672l-.227-.346.378.625Z" transform="translate(-186.938 -203.399)" fill="#448843"/><path d="M191.877,226.589c-.188-.246.025.427-.14.154a9.088,9.088,0,0,0,.618,1.131A6.431,6.431,0,0,1,191.877,226.589Z" transform="translate(-187.38 -204.632)" fill="#448843"/><path d="M193.062,229.259c-.092-.177-.2-.354-.321-.548A5.1,5.1,0,0,0,193.062,229.259Z" transform="translate(-187.766 -205.47)" fill="#448843"/><path d="M190.727,222.159a1.239,1.239,0,0,0,.071.563l.02-.3Z" transform="translate(-186.988 -202.95)" fill="#448843"/><path d="M190.88,222.569v.01l.194.567C191.049,223.074,190.991,222.9,190.88,222.569Z" transform="translate(-187.05 -203.108)" fill="#448843"/><path d="M190.694,222.051c.009.025.015.043.023.067A.065.065,0,0,0,190.694,222.051Z" transform="translate(-186.979 -202.909)" fill="#448843"/><path d="M189.479,217.356c.185.379.5,1.18.358.355C189.673,217.45,189.756,217.923,189.479,217.356Z" transform="translate(-186.511 -201.103)" fill="#448843"/><path d="M190.54,220.983l-.194-.723c-.026.024-.03.167-.122-.019Z" transform="translate(-186.798 -202.212)" fill="#448843"/><path d="M190.9,221.781l-.158-.333.083.265Z" transform="translate(-186.995 -202.676)" fill="#448843"/><path d="M192.589,227.414a8.053,8.053,0,0,1,.467.975c-.14-.406-.295-.821-.454-1.211C192.544,227.137,192.412,226.99,192.589,227.414Z" transform="translate(-187.673 -204.858)" fill="#448843"/><path d="M191.774,225.156l.03.066C191.8,225.176,191.79,225.142,191.774,225.156Z" transform="translate(-187.394 -204.101)" fill="#448843"/><path d="M195.969,234.989l-.007-.067-.025,0Z" transform="translate(-188.995 -207.856)" fill="#448843"/><path d="M192.47,226.7a2.892,2.892,0,0,0-.295-.634c.1.225.194.459.3.709C192.5,226.79,192.515,226.791,192.47,226.7Z" transform="translate(-187.548 -204.451)" fill="#448843"/><path d="M193.927,230.883q-.073-.26-.151-.543A1.868,1.868,0,0,0,193.927,230.883Z" transform="translate(-188.164 -206.096)" fill="#448843"/><path d="M191.819,225.423l-.021-.044C191.809,225.487,191.816,225.471,191.819,225.423Z" transform="translate(-187.403 -204.188)" fill="#448843"/><path d="M191.829,225.379a4.215,4.215,0,0,0,.211.377c-.074-.182-.147-.349-.217-.491A.684.684,0,0,1,191.829,225.379Z" transform="translate(-187.413 -204.144)" fill="#448843"/><path d="M197.178,235.17a2.7,2.7,0,0,1-.786-1.417c-.373-.612-.509-.038-.428.621.054,0,.09-.018.464.622-.06-.26-.56-1.547-.21-1.025a3.958,3.958,0,0,1,.458,1.193c-.062-.418.751,1.012.833.73l-.456-.724C197.074,235.142,197.261,235.393,197.178,235.17Z" transform="translate(-188.997 -207.308)" fill="#448843"/><path d="M194.947,232.666l-.14-.271a7.422,7.422,0,0,1,.306,1.02c.262.438.342.516.39.532l-.614-1.369Z" transform="translate(-188.56 -206.886)" fill="#448843"/><path d="M193.716,229.908c.194.177.534.824.473.363a4.739,4.739,0,0,0-.576-1.012c.57,1.323-.218-.358.111.633-.126-.255-.227-.488-.323-.71q.118.365.23.713l-.005-.033,0-.006h0c-.009-.063-.009-.086.009-.018a.3.3,0,0,1,.014.027.155.155,0,0,1,.066.042c.135.4,0,.073-.066-.042-.007,0-.017-.01-.023-.009v.006c.194.441.415.871.64,1.3C194.141,230.871,193.99,230.53,193.716,229.908Z" transform="translate(-188.02 -205.651)" fill="#448843"/><path d="M190.816,219c0,.046-.006.046-.013.052C190.844,219.139,190.864,219.169,190.816,219Z" transform="translate(-187.02 -201.736)" fill="#448843"/><path d="M190.791,219.4a1.636,1.636,0,0,1-.2-.492c-.05-.292.056-.015.089-.042-.09-.185-.29-.659-.16-.028l.045.092a4.808,4.808,0,0,1,.157,1.233A2.264,2.264,0,0,0,190.791,219.4Z" transform="translate(-186.894 -201.553)" fill="#448843"/><path d="M192.394,225.229q.219.558.48,1.1l-.132-.6-.047.052C192.49,225.126,192.468,225.292,192.394,225.229Z" transform="translate(-187.632 -204.131)" fill="#448843"/><path d="M195.883,235.222l-.181-.09.455.553Z" transform="translate(-188.904 -207.939)" fill="#448843"/><path d="M197.077,237.541h-.125l.25.337Z" transform="translate(-189.385 -208.865)" fill="#448843"/><path d="M316.242,296.549l.338-.081C316.419,296.5,316.316,296.526,316.242,296.549Z" transform="translate(-235.258 -231.525)" fill="#448843"/><path d="M312.169,297.169l-.055.063C312.226,297.185,312.27,297.156,312.169,297.169Z" transform="translate(-233.671 -231.794)" fill="#448843"/><path d="M238.924,282.9c.388.35.8.781.813.643l-.073-.184A4.942,4.942,0,0,1,238.924,282.9Z" transform="translate(-205.526 -226.307)" fill="#448843"/><path d="M278.423,297.083l-.142-.058-.361.065Z" transform="translate(-220.521 -231.739)" fill="#448843"/><path d="M279.458,296.4l.647.173C279.961,296.524,279.753,296.468,279.458,296.4Z" transform="translate(-221.113 -231.499)" fill="#448843"/><path d="M337.68,290.75l.338-.249C337.423,290.71,337.706,290.677,337.68,290.75Z" transform="translate(-243.485 -229.231)" fill="#448843"/><path d="M211.55,259.171c.255.367.471.647.67.886C211.922,259.606,211.719,259.213,211.55,259.171Z" transform="translate(-194.999 -217.183)" fill="#448843"/><path d="M314.93,298.825c.211-.053.3-.091.289-.116C315,298.761,314.88,298.8,314.93,298.825Z" transform="translate(-234.749 -232.387)" fill="#448843"/><path d="M213.481,261.582l-.133-.2c-.228-.232-.454-.469-.709-.774A4.1,4.1,0,0,0,213.481,261.582Z" transform="translate(-195.418 -217.737)" fill="#448843"/><path d="M397.8,239.566l.065-.093C397.858,239.456,397.834,239.5,397.8,239.566Z" transform="translate(-266.622 -209.607)" fill="#448843"/><path d="M408.674,218.513c-.035.142-.094.371-.164.583A3.832,3.832,0,0,0,408.674,218.513Z" transform="translate(-270.74 -201.548)" fill="#448843"/><path d="M202.064,246.408c-.186-.276-.039-.038,0,0Z" transform="translate(-191.316 -212.224)" fill="#448843"/><path d="M201.42,243.852c.047.054.089.091.116.084A.23.23,0,0,1,201.42,243.852Z" transform="translate(-191.103 -211.292)" fill="#448843"/><path d="M218.552,265.212l.019.021C218.52,265.146,218.529,265.161,218.552,265.212Z" transform="translate(-197.684 -219.49)" fill="#448843"/><path d="M201.759,245.759l.2.376Z" transform="translate(-191.234 -212.025)" fill="#448843"/><path d="M201.635,245.739l-.147-.25C201.448,245.464,201.457,245.5,201.635,245.739Z" transform="translate(-191.122 -211.919)" fill="#448843"/><path d="M202.364,246.829c-.1-.159-.2-.311-.281-.459.028.06.037.086.024.074Z" transform="translate(-191.358 -212.26)" fill="#448843"/><path d="M370.584,272.986l.059-.037C370.855,272.688,370.753,272.792,370.584,272.986Z" transform="translate(-256.156 -222.421)" fill="#448843"/><path d="M252.1,287.67l-.036-.01.041.024Z" transform="translate(-210.579 -228.138)" fill="#448843"/><path d="M253.224,288.095a2.629,2.629,0,0,1-1.092-.4l.207.481Z" transform="translate(-210.605 -228.153)" fill="#448843"/><path d="M276.6,263.3l-.821.089c.919-.409,1.624-.518.844-.485-.025.4-3.073.792-3.11,1.191h-.55c.154-.019.174-.044.326-.062-1.072-.029-.723.381-2.078.522-.473.039-.807.031-.495-.059l-1.029.244c-.3.036-.239-.04.063-.076l-1.585.26.01-.013c-.22.092-.725.258-.972.333-.411,0,.2-.069.09-.1a6.279,6.279,0,0,1-.878.168c-.373-.1.362-.166.967-.27-.856-.249-.727.154-2.532.039l.834-.088a11.781,11.781,0,0,0-2.152-.169c.224.06,1.912.247.955.388a4.447,4.447,0,0,0-1.148.089c-.011-.134-.516-.077-1.152-.039l.039-.18a4.2,4.2,0,0,0-1.031.273c-.766.018-.924-.1-1.1-.239-1.222-.087.845.263-.6.226a17.346,17.346,0,0,0-2.961-.03c-.711-.1.131-.1-.122-.166l-.641.111c-.155-.01-.1-.052-.075-.073-.538.03-.056.176-.9.184-.121.093-.548,0-1.074-.093a5.682,5.682,0,0,0-1.671-.257c-.247-.087.135-.091.066-.171a23.373,23.373,0,0,0-2.413-.042l-.97-.259c.705.237-.249.26-1.091.27.247.1.459.189.6.237l-1.327-.1c-.149-.068-.01-.087.22-.135-.092,0-.18.009-.247,0-.446-.179-.189-.214.16-.243l.449.176c.343-.06.664-.135.615-.247a2.918,2.918,0,0,1-.434-.014c.089-.017.148-.035.111-.058a1.38,1.38,0,0,0-.4.008l-.257-.238-.087.066-1.639-.529a27.975,27.975,0,0,1-4.271-.449c.512-.025.166-.2.239-.365a15.092,15.092,0,0,0,2.456.559c-.507-.144-.374-.2-.237-.193l-1.79-.266c.077-.127-.343-.193-.783-.361.135.169-.21.159-.665.034s-1.025-.338-1.385-.418c-.014-.1.181-.137,1.017.179-.865-.526-1.3-.108-2.163-.6a1.014,1.014,0,0,0,.41.106c-.508-.09-1.665-.565-1.361-.545l.206.07c-.678-.255-1.718-.62-2.625-.9a6.741,6.741,0,0,0-1.777-.553.882.882,0,0,1,.384-.19l-2.683-.366c.294-.089-.292-.9.846-.494a7.319,7.319,0,0,0-1.361-.623c.2.125.4.513.1.393a14.217,14.217,0,0,0-1.4-1c.3.185-.2.313-.7.057.1,0,.1-.295.3-.238-.455-.125-.9-.281-1.348-.422.326.127.18-.2-.044-.438.094.127-1.028-.615-1.361-.776l.469.362c-1.323-.838-1.558-.409-2.9-1.22.2.042.614-.1-.046-.535a8.259,8.259,0,0,1-1.2-.2,7.6,7.6,0,0,1-1.765-.759l-.162-.233-.921-.548c.685.2,2.46.894,3.389,1.3-.445-.386-.075-.181-.788-.689-.2-.254.457.175.667.323l-1.606-1.252c-.034.207-1.364-.77-1.395-.6l1.9,1.156c-.032.209-1.339-.325-2.494-1.216-.252-.278.423-.1.436-.172a7.148,7.148,0,0,1-1.26-.831l.556.284c-.6-.538-1.225-.569-1.869-1.312-.241-.234-.585-.855-.7-.809.265.528-.076,1.112-.452.988-.079-.092-1.185-1.348-1.4-1.684-.3-.5.881.259.627-.166-.049.025-.316-.132-.424-.2-.231-.269.214-.021-.368-.516-.222.055-1.141-1.055-.377-.124-.592-.462-.563-.562-1.22-1.145.129.271-.891-.215-1.462-.713.065,0-.007-.169-.042-.248-1.036-1.14-1.589-1.756-2.514-2.853-.053-.13-.463-.69-.209-.521a3.934,3.934,0,0,1-.626-.566c-.434-.752.664.728.387.107a7.543,7.543,0,0,1-1.314-1.207c-.028.274.918,1.131,1.379,1.563-.161.146-1.115-.487-2.125-1.614-.787-.907-.2-.5-.356-.646-1.364-1.785-1.5-1.273-2.458-2.9-.308-.692.225-.2.217-.4.611.759.79,1.273,1.179,1.808l-.414-.7a8.232,8.232,0,0,1,.812,1.032c-.266-.572-2.229-3.068-3.021-4.616-.208-.231-.54-.65-.455-.407l.314.45c.172.489-.7-.779-.371-.164a9.706,9.706,0,0,1-1.476-2.15l.05-.254a2.644,2.644,0,0,0,.444.864c-.283-.337-.6-1.491-1.029-1.791l.262.688a10.3,10.3,0,0,1-1.423-2.165c.044.452.114.179.243.857-.075-.607,1.14,2.075.921,1.148.139.7.5,1.057.775,1.921.036-.054-.069-.324.306.358a1.328,1.328,0,0,1,.135.118l.025.046-.017-.039c.025.024.028.026-.007-.015a1.289,1.289,0,0,1-.137-.38c.31.262.979,1.3,1.259,1.61.226.4-.159-.126-.073.118l.42.468c-.071.121.49,1.145-.159.273.173.276.348.551.541.814a9.458,9.458,0,0,0,1.04,1.538c.246.393.788.867.476.6.316.4.667.777,1,1.166l-.017.03c.9,1.219,2.107,2.289,3.079,3.735.35.371.743.722,1.306,1.362l.035.195c.484.441,1.265,1.514,1.567,1.608.319.683,2.313,2.181,3.131,2.989l.125-.077c.582.537,1.172,1.016,1.936,1.63l.034-.137c.731.437,1.689,1.362,2.773,2.15a1.874,1.874,0,0,1-.543-.393c1.135,1.16,2.808,1.87,3.909,2.818a3.348,3.348,0,0,1,.753.448l-.081-.04.127.077.4.312a4.058,4.058,0,0,0-.328-.272c.241.14.613.342.985.526l.082.205.084.045c.325.25.314.111.179-.086a5.3,5.3,0,0,0,.512.209c.175.356.969.489,1.243.919.3.028,1.814,1.02,2.148.851,0,.034.1.1-.1.006a6.258,6.258,0,0,0,1.214.55l.1.236,1.01.216c.508.351.714.513.107.377,1.414.434,1.111.432,2.32.772l-.1.076a8.048,8.048,0,0,1,1.316.541c.871.5,4.613,1.718,7.009,2.621-.394-.431,1.116.423,1.281.2.125.11.462.237.041.2a18.1,18.1,0,0,0,2.806.592c.129.111-.3.044-.177.12a1.605,1.605,0,0,1,.54.111c.121.076-.2.018-.409,0,1.3.305,1.482.1,1.619-.091a2.567,2.567,0,0,0,1.486.186c.22.105.6.236-.228.144a13.874,13.874,0,0,0,2.872.343,3.032,3.032,0,0,0,.766.1c1.032.156,1.12.2,2.138.31a2.358,2.358,0,0,1-.279-.06c.422-.159.854,0,1.68.025l-.025.021c1.882.246.819-.035,2.678.231l-.1-.138c.183-.282,1.647.254,2.734.185-.13-.022-.26-.061-.39-.09a21.5,21.5,0,0,1,2.256.353c.131.019-.2.05-.385.078,1.569.1.2-.185,1.359-.281.218.084-.267.254.518.234a28.081,28.081,0,0,1,3.336-.286c-.242-.064-.481-.117.051-.209a14.689,14.689,0,0,0,2.96-.381c.107,0,.15.018.156.035a22.247,22.247,0,0,0,2.376-.569c.686.471,3.786-1.06,3.866-.627l1.886-.485-.039.055a6.87,6.87,0,0,0,2.012-.676c.279-.067.092.04.076.07a13.336,13.336,0,0,0,3.277-1.3l.2.078a14.085,14.085,0,0,1,1.618-.5c.4-.116.838-.25,1.278-.4a13.111,13.111,0,0,0,1.239-.625c-.01.022-.033.062-.154.14,1.75-.991,4.536-1.685,4.975-2.444.377-.229.726-.513,1.088-.767-1.489.835.114-.321-.529-.038.561-.366,1.565-.749.868-.307l-.124.044c-.134.385,1.872-1,1.923-.822a76.911,76.911,0,0,0,8.179-5.42l-.42.056c.3-.217.6-.422.888-.65.235-.168.409-.113-.22.36.42-.14.928-.947.924-.984,1.195-.969-.293.585.06.273l.466-.443-.123.079a5.4,5.4,0,0,1,1.015-1.136c.47-.371.311-.112.491-.264.008.012.072-.037.272-.238l1.042-.92-.522.255c.4-.47.973-.868.374-.572.948-.365,3.768-3.54,4.178-3.945.5-.711,1.048-1.356,1.728-2.158-.193.18-.432.183.166-.5.091.5,1.162-1.193,1.82-1.614-.522.427,1.5-2.1.687-1.426.468-.6.14.046.548-.37.938-1.545,2.326-3.234,3.422-5.187-.025-.055-.276.231-.1-.221l.8-.9c.2-.4-.036-.484.486-1.116-.089.081-.223.2-.1-.067,2.3-3.746,3.677-8.118,5.428-12.212-.277.545-.162.16-.023-.278-.115.278-.114-.042-.2-.007l.7-1.731c-.068-.37.5-1.93.375-2.161l-.113.578c-.012-.807-.712.942-.947.757-.017.9-.95,2.1-1.086,3.542-.15.281,0-.281-.11-.142a3.868,3.868,0,0,1-.432,1.542l0-.095A41.7,41.7,0,0,1,323.4,224.6l.2-.118a5.968,5.968,0,0,1-.455.8c-.072.657.631-1.4.6-.783-.512.562-1.645,3.487-2.168,3.767-.393.74.25-.146-.143.595l-.177.157-.006.238c-.268.481-.507.665-.575.65a4.322,4.322,0,0,0,.233-.466c-.431.573-.968,1.757-1.115,1.954l.444-.672c-1.068,2.026-2.672,4.314-3.854,6.187l.148-.1a28.257,28.257,0,0,1-1.95,2.551l.03-.063a6.275,6.275,0,0,1-.8,1.121c.244-.406-.674.585-.343.062a9.421,9.421,0,0,0-1.131,1.821l-.264.139a4.638,4.638,0,0,1-.8,1.139c.444-.627-.511.333-.028-.381-1.5,1.253-1.822,2.261-2.734,2.606-.461.807,1.359-1.017,1.023-.646.371-.224-.377.669-.863,1.048a15.722,15.722,0,0,0-2.191,1.5c.116-.1.11-.126.225-.23-.481.337-.784.843-1.392,1.234-.186.4-.7.616-.64.863l1.03-1a8.828,8.828,0,0,1-2.089,2.048,5.733,5.733,0,0,1,.54-.57c-.352.188-.58.483-.948.673-.022-.121.321-.388.744-.706a8.527,8.527,0,0,0,1.126-1.126c-.371.21-1.116,1.227-.945.749-.278.653-1.25.891-1.95,1.711l-.024-.147a5.927,5.927,0,0,1-.614.55l.346-.467c-.6.624-1.4.872-2.012,1.422,1.377-1.02.4-.1,1.043-.45-1.618,1.384-1.154.481-3.075,1.852.28-.155,1.041-.6.67-.257a6.537,6.537,0,0,1-1.207.566c-1.334.821.28-.007-.251.4-.545.135-.629.448-1.2.844l-.073-.113c-1.584.837-.267.484-1.709,1.217l.495-.51-.7.47.075-.222a7.123,7.123,0,0,1-1.795,1.073c.232,0,.007.266-.713.6-.527.157.217-.242-.794.249a1.559,1.559,0,0,1,.9-.489c.025-.06.188-.181.215-.241a12.606,12.606,0,0,0-1.7.768,3.509,3.509,0,0,1,.412-.157l-1.4.855c-.254.062-.086-.061.08-.182-.293.153-.474.305-.91.52.07-.153,0-.244.6-.579l-1.354.764c-.113,0-.771.214-.6.092a23.623,23.623,0,0,1-2.986,1.255,1.806,1.806,0,0,1-.377.193,20.538,20.538,0,0,0-3.1,1.078,5.916,5.916,0,0,1-.742.027c-.951.278,1.016.006-.572.47-1.123.339-.469-.058-.882-.013a8.3,8.3,0,0,1-2.56.77C276,263.436,276.278,263.4,276.6,263.3Zm-12.087,1.911a2.5,2.5,0,0,1,.881-.078C265.133,265.3,264.918,265.241,264.511,265.216ZM245.9,264.2a2.134,2.134,0,0,1,.735.209A4.536,4.536,0,0,1,245.9,264.2Zm-43.316-27.57.021.017C202.878,237.115,202.784,236.947,202.587,236.628Zm-.6-.947c-.081-.081-.089-.066-.08-.015a2.261,2.261,0,0,1,.38.487A1.2,1.2,0,0,0,201.984,235.681Zm105.37,12.692-.185.12C307.508,248.133,307.429,248.252,307.354,248.372Z" transform="translate(-189.731 -199.477)" fill="#448843"/><path d="M279.364,296.482a.154.154,0,0,1,.087.087C279.549,296.56,279.555,296.534,279.364,296.482Z" transform="translate(-221.077 -231.531)" fill="#448843"/><path d="M337.605,290.952l.036-.011a.079.079,0,0,0,.027-.035Z" transform="translate(-243.473 -229.386)" fill="#448843"/><path d="M224.436,269.466a2.183,2.183,0,0,1,.279.346C224.746,269.8,224.688,269.705,224.436,269.466Z" transform="translate(-199.954 -221.142)" fill="#448843"/><path d="M199.181,241.736l.391.606a3.473,3.473,0,0,1-.287-.583C199.267,241.788,199.3,241.93,199.181,241.736Z" transform="translate(-190.242 -210.478)" fill="#448843"/><path d="M195.723,231.927c-.058-.088-.094-.2-.152-.286l-.046.051C195.715,232.094,195.891,232.354,195.723,231.927Z" transform="translate(-188.836 -206.596)" fill="#448843"/><path d="M199,239.873c.073-.1-.167-.484-.417-.919l.041.079C198.412,238.976,198.7,239.427,199,239.873Z" transform="translate(-190 -209.409)" fill="#448843"/><path d="M198.356,238.532c-.076-.135-.151-.274-.216-.411C198.057,238.1,198.214,238.295,198.356,238.532Z" transform="translate(-189.833 -209.088)" fill="#448843"/><path d="M203.038,247.776c-.1-.217-.2-.047-.237-.186C202.536,247.444,203.81,248.834,203.038,247.776Z" transform="translate(-191.62 -212.725)" fill="#448843"/><path d="M199.478,239.574l-.04.226.23.193Z" transform="translate(-190.341 -209.647)" fill="#448843"/><path d="M202.234,244.663c-.138-.228-.257-.467-.379-.7-.014.023-.077-.058-.148-.16A4.169,4.169,0,0,0,202.234,244.663Z" transform="translate(-191.214 -211.272)" fill="#448843"/><path d="M201.493,243.459a4.53,4.53,0,0,0-.343-.545C201.221,243.033,201.375,243.289,201.493,243.459Z" transform="translate(-190.999 -210.931)" fill="#448843"/><path d="M200.424,241.087l.092.218.274.492Z" transform="translate(-190.72 -210.229)" fill="#448843"/><path d="M210.57,256.582l.57.66c.092.039-.032-.166-.247-.408C210.738,256.69,210.524,256.447,210.57,256.582Z" transform="translate(-194.619 -216.172)" fill="#448843"/><path d="M208.446,252.854a1.377,1.377,0,0,1,.14.374l.155-.084C208.636,253.052,208.544,252.951,208.446,252.854Z" transform="translate(-193.805 -214.754)" fill="#448843"/><path d="M210.905,255.877c.091.038.883.9.2.046C211.011,255.884,210.445,255.227,210.905,255.877Z" transform="translate(-194.682 -215.806)" fill="#448843"/><path d="M225.336,271.415l-.165-.147-.162.237Z" transform="translate(-200.174 -221.835)" fill="#448843"/><path d="M240.577,281.218c-.842-.577-.3.026-1.049-.516-.242-.065.612.443.371.367C240.466,281.323,240.724,281.522,240.577,281.218Z" transform="translate(-205.741 -225.46)" fill="#448843"/><path d="M239.973,281.225l-.294-.124A2.538,2.538,0,0,0,239.973,281.225Z" transform="translate(-205.816 -225.616)" fill="#448843"/><path d="M410.091,214.351l.221-.635-.2.4Z" transform="translate(-271.348 -199.703)" fill="#448843"/><path d="M410.27,212.305l.215-.11-.062-.427A2.079,2.079,0,0,1,410.27,212.305Z" transform="translate(-271.417 -198.954)" fill="#448843"/><path d="M303.149,297.311l-.048.046a1.641,1.641,0,0,0,.563.031Z" transform="translate(-230.205 -231.85)" fill="#448843"/><path d="M317.43,296.123l-.152.018.309.121Z" transform="translate(-235.657 -231.393)" fill="#448843"/><path d="M328.67,293.226l-.931.25C328.373,293.291,328.8,293.4,328.67,293.226Z" transform="translate(-239.679 -230.279)" fill="#448843"/></g><path d="M267.328,51.964c-.763-.162-1.92-.388-2.565-.488s-1.408-.231-1.689-.294a.918.918,0,0,0-.738.119,8.685,8.685,0,0,1-3.471-.144,11.719,11.719,0,0,0-2.058-.137c-.05,0-.106-.007-.156-.007-.813-.025-1.958-.05-3.6-.087a57.78,57.78,0,0,0-6.355-.006,2.93,2.93,0,0,1-1.551-.131,1.033,1.033,0,0,0-1.157-.113,5.437,5.437,0,0,1-1.457.269,15.59,15.59,0,0,0-4,.907c-.069.075-.263.063-.425-.018a1.183,1.183,0,0,0-.769-.007,2.571,2.571,0,0,1-.813.119,3.288,3.288,0,0,0-.957.175,7.844,7.844,0,0,1-1.676.231,8.93,8.93,0,0,0-2.308.487,14.247,14.247,0,0,1-2.258.595,19.579,19.579,0,0,0-2.589.657c-.863.281-1.782.55-2.039.606a12.4,12.4,0,0,0-1.426.444,5.506,5.506,0,0,1-1.395.363,3.107,3.107,0,0,0-1.151.388,32.958,32.958,0,0,1-4.2,1.576,5.241,5.241,0,0,0-.675.238,6.011,6.011,0,0,1-.763.269,10.359,10.359,0,0,0-2.433.913.5.5,0,0,1-.375.156c-.269-.068-.644.375-.475.55a2.09,2.09,0,0,0,1.051.019c.494-.069.876-.075.844-.006a5.305,5.305,0,0,1-1.076.582,7,7,0,0,0-1.163.606,2.391,2.391,0,0,1-.663.326,11.87,11.87,0,0,0-3.033,2.045,30.5,30.5,0,0,1-2.765,1.92c-.913.563-2.383,1.582-3.271,2.27a14.789,14.789,0,0,1-1.958,1.357,4.373,4.373,0,0,0-1.057.651c-.394.3-1.076.807-1.52,1.12s-1.176.857-1.633,1.219A21.118,21.118,0,0,0,193.8,73.3a7.184,7.184,0,0,0-1.082,1.288,19.651,19.651,0,0,1-1.7,2.077c-.775.857-1.582,1.782-1.782,2.057a1.2,1.2,0,0,1-.67.538,7.766,7.766,0,0,0-2.208,2.5,5.219,5.219,0,0,1-.739,1.07,6.188,6.188,0,0,0-.681.944,5.755,5.755,0,0,1-.719.938,5.013,5.013,0,0,0-.844,1.282,5.367,5.367,0,0,1-.588,1.113,4.971,4.971,0,0,0-.613,1.225,2.629,2.629,0,0,1-.425.863,9.893,9.893,0,0,0-1.245,2.383,8.3,8.3,0,0,1-1.538,2.195,2.456,2.456,0,0,0-.62,1.076.686.686,0,0,1-.15.482,26.893,26.893,0,0,0-1.22,2.6c-.569,1.332-1.339,3.109-1.7,3.934a15.613,15.613,0,0,0-.688,1.739c-.013.119-.232.887-.482,1.7a50.951,50.951,0,0,0-1.464,5.084,5.624,5.624,0,0,1-.338,1.151,9.3,9.3,0,0,0-.469,1.895,5.277,5.277,0,0,1-.269,1.269,1.937,1.937,0,0,0-.156.7,3.155,3.155,0,0,1-.231.944,4.821,4.821,0,0,0-.294,1.2c-.069.469-.212,1.257-.325,1.745a2.626,2.626,0,0,0-.119.976,1.186,1.186,0,0,1-.132.613,6.842,6.842,0,0,0-.169,2.013,5.873,5.873,0,0,1-.081,1.614,4.067,4.067,0,0,0-.175,1.27,8.5,8.5,0,0,1-.212,1.651,2.28,2.28,0,0,0-.075.957,7.136,7.136,0,0,1,.1,1.019c.075,2.17.138,3.6.182,4.134.031.343.087,1.363.125,2.276s.094,2.039.132,2.508.093,1.395.125,2.07a5.7,5.7,0,0,0,.162,1.332,5.225,5.225,0,0,1,.15,1.313c.057,1.42.407,2.9,1.657,7.048.457,1.52.819,2.827.932,3.415a6.555,6.555,0,0,0,.244.9c.075.238.225.756.313,1.169a13.976,13.976,0,0,0,.919,3.133,1.645,1.645,0,0,1,.231.694,6.355,6.355,0,0,0,.706,1.657,49.273,49.273,0,0,1,2.371,4.853,5.194,5.194,0,0,0,.595,1.163,2.694,2.694,0,0,1,.444.763c.175.438.338.8.507,1.144a1.871,1.871,0,0,1,.251-.125c.094.188.212.4.343.644a1,1,0,0,1,.126-.106,3.371,3.371,0,0,1,.651-.413c.05-.025.1-.05.15-.069a1.5,1.5,0,0,1,.244-.1c-.056-.094-.119-.188-.175-.287-.031-.044-.056-.082-.081-.126a21.2,21.2,0,0,1-2.433-5.028,6.217,6.217,0,0,0-.588-1.257,2.061,2.061,0,0,1-.15-.957,2.26,2.26,0,0,0-.313-1.276,2.172,2.172,0,0,1-.357-.807,7.08,7.08,0,0,0-.5-1.326,10.828,10.828,0,0,1-.631-1.713,4.053,4.053,0,0,0-.457-1.145,2.049,2.049,0,0,1-.319-.756c-.019-.175-.332-1.2-.694-2.283a38.473,38.473,0,0,1-1.683-6.353c-.038-.163-.113-.795-.169-1.395a3.179,3.179,0,0,0-.382-1.37,3.048,3.048,0,0,1-.338-1.557c-.194-3.94-.231-5.028-.188-6.129.025-.669.031-1.569.025-2s-.019-1.044-.025-1.363a1.448,1.448,0,0,0-.182-.751c-.188-.187-.169-2.208.05-4.921.076-.932.157-1.945.163-2.245a40.41,40.41,0,0,1,.575-5.147,4.047,4.047,0,0,0,.212-1.094,20.033,20.033,0,0,1,.751-2.933c.394-1.257.726-2.37.744-2.483s.319-1.095.682-2.189a12.85,12.85,0,0,0,.669-3,3.789,3.789,0,0,1,.263-1.395,1.374,1.374,0,0,0,.219-.682.709.709,0,0,1,.175-.507,1.766,1.766,0,0,0,.257-.844,14.368,14.368,0,0,1,1.72-4.609,1.872,1.872,0,0,0,.494-.969,1.81,1.81,0,0,1,.412-.876,7.887,7.887,0,0,0,1.32-2.389,9.673,9.673,0,0,1,1.195-2.133,9.266,9.266,0,0,0,1.357-2.164,1.193,1.193,0,0,1,.344-.594.773.773,0,0,0,.263-.744c-.075-.319,0-.457.35-.7.244-.162.438-.363.438-.431a6.262,6.262,0,0,1,.82-1.057A6.024,6.024,0,0,0,186,85.584a27.444,27.444,0,0,1,2.9-4.046,33.259,33.259,0,0,1,3.608-4.059c.319-.319,1.089-1.088,1.714-1.733s1.263-1.269,1.438-1.419a9.351,9.351,0,0,0,.926-1.013,7.246,7.246,0,0,1,1.319-1.22c.532-.35.732-.556.825-.851.069-.25.2-.406.357-.425a14.841,14.841,0,0,0,2.764-1.851c.5-.375,1.214-.9,1.583-1.157s1.063-.756,1.539-1.094a4.305,4.305,0,0,1,1.176-.644,13.5,13.5,0,0,0,2.958-1.5c.97-.551,1.339-.857,1.357-1.163.025-.244.069-.269.219-.119.238.244.613.062,1.939-.913a24.838,24.838,0,0,1,2.808-1.676,13.318,13.318,0,0,0,2.1-1.251,1.668,1.668,0,0,1,1.045-.419,6.593,6.593,0,0,0,2.589-.976,1.947,1.947,0,0,1,.75-.313,1.833,1.833,0,0,0,.738-.288,19.291,19.291,0,0,1,4.015-1.332,3.6,3.6,0,0,0,1.139-.35,3.679,3.679,0,0,1,1.232-.356,5.863,5.863,0,0,0,1.426-.4,10.642,10.642,0,0,1,1.676-.532,2.665,2.665,0,0,0,.964-.313.975.975,0,0,1,.619-.138,9.721,9.721,0,0,0,2.227-.35c.156-.031.651-.087,1.083-.125a4.892,4.892,0,0,0,.719-.094c.025-.006.051-.013.069-.019a.2.2,0,0,0,.075-.025c.006,0,.012-.006.019-.012a.317.317,0,0,1,.125-.038c.006,0,.012-.006.018-.006a7.93,7.93,0,0,1,1.032-.081.283.283,0,0,0,.075-.006c.281-.013.638-.031,1-.057.431-.031.876-.062,1.22-.094a16.7,16.7,0,0,1,2.114-.057c.338.025.919.038,1.507.031h.006c.275,0,.544,0,.788-.012h.044a6.8,6.8,0,0,0,.876,0h.025a7.9,7.9,0,0,1,1.145.106l.1.018a1.207,1.207,0,0,0,.75-.025c.182-.013.369-.013.575-.019a3.092,3.092,0,0,0,1.889.044.339.339,0,0,1,.113-.081h.175a.564.564,0,0,1,.182.138.692.692,0,0,0,.15.106,1.149,1.149,0,0,0,.575.138,9.957,9.957,0,0,1,1.539.175,3.176,3.176,0,0,0,1.376.05,3.294,3.294,0,0,1,1.245-.05c.525.057,1.451.138,2.051.182a26.655,26.655,0,0,1,3.659.475,2.048,2.048,0,0,0,1.351-.068c.294-.194.451-.182.682.056a1.854,1.854,0,0,0,.919.356,1.069,1.069,0,0,0,1.088-.425c.457-.457.538-.475,1.533-.287l.081.018Zm14.536,148.686-.046-.047a2.708,2.708,0,0,0-.779.343,1.764,1.764,0,0,1-.9.319.923.923,0,0,0-.59.166c-.389.4-1.523.791-1.711.59-.3-.3-.614-.2-1.641.521a4.131,4.131,0,0,1-1.357.708,4.361,4.361,0,0,0-1.193.4,13.57,13.57,0,0,1-1.747.65c-.531.153-1.18.331-1.451.414-1.747.5-4.556,1.181-5.465,1.323-.885.13-3.989.78-5.961,1.252a25.986,25.986,0,0,1-7.093.685,40.915,40.915,0,0,1-6.231-.248,17.446,17.446,0,0,0-1.794-.13,12.6,12.6,0,0,1-3.2-.33c-.154-.012-.319-.024-.484-.047-.142-.012-.284-.036-.425-.047a.035.035,0,0,1-.023-.012.672.672,0,0,1-.153-.012c-.9-.106-1.877-.225-2.16-.248a38.068,38.068,0,0,1-4.933-.756,4.169,4.169,0,0,0-1.051-.249,15.033,15.033,0,0,1-2.2-.626l-.6-.213c-1.2-.437-2.254-.8-2.361-.827s-1.05-.354-2.088-.745a12.2,12.2,0,0,0-2.868-.768,3.663,3.663,0,0,1-1.334-.307,1.19,1.19,0,0,0-.649-.236.733.733,0,0,1-.484-.189,1.525,1.525,0,0,0-.8-.284,13.609,13.609,0,0,1-4.367-1.855,1.873,1.873,0,0,0-.921-.519,1.706,1.706,0,0,1-.826-.438,7.514,7.514,0,0,0-2.254-1.371,9.06,9.06,0,0,1-2.007-1.241,9.149,9.149,0,0,0-2.03-1.406,1.149,1.149,0,0,1-.567-.355.741.741,0,0,0-.708-.284c-.307.059-.437-.023-.661-.366a1.177,1.177,0,0,0-.39-.449,5.374,5.374,0,0,1-.991-.839,5.6,5.6,0,0,0-1.156-.922,27.367,27.367,0,0,1-3.777-2.978,31.821,31.821,0,0,1-3.777-3.663c-.295-.319-1-1.1-1.605-1.725-.578-.627-1.168-1.276-1.31-1.454a8.755,8.755,0,0,0-.945-.945,7.179,7.179,0,0,1-1.121-1.323c-.319-.532-.508-.732-.791-.839-.236-.082-.378-.212-.39-.366a14.276,14.276,0,0,0-1.675-2.753c-.343-.508-.827-1.217-1.051-1.584-.248-.366-.7-1.063-1-1.536a4.092,4.092,0,0,1-.566-1.17,13.559,13.559,0,0,0-1.334-2.93c-.5-.969-.779-1.336-1.074-1.371-.225-.036-.248-.071-.106-.213.248-.224.095-.591-.8-1.926a23.173,23.173,0,0,1-1.5-2.789A12.433,12.433,0,0,0,177.26,160a1.575,1.575,0,0,1-.354-1.028,6.635,6.635,0,0,0-.838-2.564,1.669,1.669,0,0,1-.271-.733,1.71,1.71,0,0,0-.26-.732,19.079,19.079,0,0,1-1.121-3.958,3.482,3.482,0,0,0-.3-1.111,3.716,3.716,0,0,1-.295-1.217,5.158,5.158,0,0,0-.331-1.394,11.316,11.316,0,0,1-.448-1.654,2.6,2.6,0,0,0-.26-.945.993.993,0,0,1-.106-.614,9.411,9.411,0,0,0-.26-2.174c-.023-.153-.058-.638-.07-1.052-.012-.3-.036-.543-.06-.708-.012-.024-.012-.047-.023-.071a.172.172,0,0,0-.023-.071.011.011,0,0,0-.012-.012.457.457,0,0,1-.024-.13l-.012-.012c-.024-.2-.035-.579-.035-1v-.082c0-.272-.012-.615-.012-.969-.023-.425-.035-.851-.047-1.193a16.653,16.653,0,0,1,.024-2.056c.047-.331.071-.886.094-1.465.012-.189.012-.378.012-.555v-.213l.012-.035v-.012a7.868,7.868,0,0,0,.035-.851v-.023a7.789,7.789,0,0,1,.142-1.111.765.765,0,0,0,.023-.094,1.136,1.136,0,0,0,0-.733c0-.165.012-.354.012-.555a3.067,3.067,0,0,0,.118-1.832.431.431,0,0,1-.082-.118l.012-.166a.459.459,0,0,1,.142-.177.507.507,0,0,0,.106-.142,1.106,1.106,0,0,0,.154-.543,10.862,10.862,0,0,1,.224-1.489,2.991,2.991,0,0,0,.106-1.335,3.335,3.335,0,0,1,0-1.217c.07-.508.188-1.406.259-1.985a25.485,25.485,0,0,1,.6-3.533,1.988,1.988,0,0,0-.023-1.323c-.166-.3-.154-.437.082-.662a1.666,1.666,0,0,0,.378-.874,1.022,1.022,0,0,0-.366-1.075c-.425-.461-.436-.543-.212-1.5a.211.211,0,0,1,.023-.083l-1.983.508c-.189.732-.449,1.843-.578,2.469-.106.627-.272,1.359-.342,1.63a.894.894,0,0,0,.082.721,8.5,8.5,0,0,1-.271,3.367,10.7,10.7,0,0,0-.212,2c0,.047-.012.094-.012.153-.059.78-.13,1.891-.224,3.486a60.4,60.4,0,0,0-.26,6.179,2.776,2.776,0,0,1-.189,1.5,1.025,1.025,0,0,0-.154,1.122,5.389,5.389,0,0,1,.213,1.418,14.93,14.93,0,0,0,.708,3.923c.071.071.058.26-.036.414a1.281,1.281,0,0,0-.035.744,2.235,2.235,0,0,1,.082.8,3.2,3.2,0,0,0,.142.933,8.508,8.508,0,0,1,.153,1.631,8.634,8.634,0,0,0,.377,2.269,13.9,13.9,0,0,1,.484,2.209,19.741,19.741,0,0,0,.531,2.552c.236.851.46,1.749.507,2a10.014,10.014,0,0,0,.378,1.406,6.3,6.3,0,0,1,.3,1.37,2.956,2.956,0,0,0,.319,1.135,32.6,32.6,0,0,1,1.357,4.135,5.786,5.786,0,0,0,.2.674,6.656,6.656,0,0,1,.236.744,10.582,10.582,0,0,0,.779,2.4.481.481,0,0,1,.142.379c-.082.259.33.638.508.484a2.012,2.012,0,0,0,.058-1.028c-.047-.484-.035-.851.036-.815a5.569,5.569,0,0,1,.519,1.064,6.407,6.407,0,0,0,.531,1.158,2.242,2.242,0,0,1,.3.649,11.437,11.437,0,0,0,1.853,3.037,28.443,28.443,0,0,1,1.735,2.753c.508.91,1.44,2.375,2.065,3.273a13.78,13.78,0,0,1,1.227,1.949,4.181,4.181,0,0,0,.59,1.052c.271.4.732,1.075,1.015,1.524s.779,1.17,1.108,1.631a21.144,21.144,0,0,0,1.475,1.784,7.386,7.386,0,0,0,1.193,1.1,18.614,18.614,0,0,1,1.936,1.725c.8.792,1.664,1.607,1.912,1.82a1.13,1.13,0,0,1,.5.673,7.545,7.545,0,0,0,2.325,2.233,5.082,5.082,0,0,1,.991.768,8.29,8.29,0,0,0,.885.7,5.673,5.673,0,0,1,.886.732,4.966,4.966,0,0,0,1.192.875,4.716,4.716,0,0,1,1.051.614,4.958,4.958,0,0,0,1.168.638,2.562,2.562,0,0,1,.814.449,9.435,9.435,0,0,0,2.243,1.3,7.975,7.975,0,0,1,2.054,1.584,2.291,2.291,0,0,0,1.015.638.729.729,0,0,1,.46.166,25.932,25.932,0,0,0,2.455,1.288c1.262.6,2.95,1.417,3.73,1.808a13.5,13.5,0,0,0,1.652.733c.107.023.838.26,1.617.531a44.913,44.913,0,0,0,4.839,1.619,5.277,5.277,0,0,1,1.1.378,9.824,9.824,0,0,0,1.806.532,5.217,5.217,0,0,1,1.216.307,1.643,1.643,0,0,0,.672.177,3.433,3.433,0,0,1,.9.26,4.236,4.236,0,0,0,1.145.331c.449.094,1.2.26,1.676.39a2.447,2.447,0,0,0,.932.154c.047-.047.307.036.578.153a6.913,6.913,0,0,0,1.936.237,5.811,5.811,0,0,1,1.558.142,3.691,3.691,0,0,0,1.216.224,7.379,7.379,0,0,1,1.582.272,2.251,2.251,0,0,0,.92.106,8.391,8.391,0,0,1,.992-.059h.4c1.865.012,3.1.012,3.588-.012.33-.024,1.31-.036,2.2-.036s1.971-.012,2.419-.036,1.345-.035,2.006-.035a5.893,5.893,0,0,0,1.286-.106,4.768,4.768,0,0,1,1.275-.095c1.369,0,2.809-.283,6.857-1.335,1.475-.39,2.75-.685,3.328-.78a5.261,5.261,0,0,0,.873-.2c.236-.059.743-.189,1.145-.26a13.544,13.544,0,0,0,3.044-.767,1.568,1.568,0,0,1,.685-.2,5.893,5.893,0,0,0,1.629-.627,48.534,48.534,0,0,1,4.767-2.115,4.582,4.582,0,0,0,1.145-.532,2.645,2.645,0,0,1,.743-.4c.437-.154.791-.3,1.133-.449a1.173,1.173,0,0,1-.118-.248C281.416,200.875,281.628,200.769,281.864,200.651ZM283.46,64.6a1.533,1.533,0,0,1,.744.387,6.713,6.713,0,0,0,2.031,1.215,8.149,8.149,0,0,1,1.808,1.1,8.188,8.188,0,0,0,1.83,1.248,1.034,1.034,0,0,1,.511.314.665.665,0,0,0,.637.25c.275-.055.392.018.6.324a1.06,1.06,0,0,0,.353.4,4.8,4.8,0,0,1,.895.747,5.031,5.031,0,0,0,1.043.819,24.6,24.6,0,0,1,3.408,2.647,28.523,28.523,0,0,1,3.413,3.262c.267.284.907.979,1.451,1.537.523.558,1.057,1.137,1.185,1.3a7.833,7.833,0,0,0,.854.842,6.458,6.458,0,0,1,1.014,1.18c.289.475.46.654.715.747.213.073.341.188.352.326a12.825,12.825,0,0,0,1.521,2.459c.31.454.749,1.087.953,1.414.225.327.632.95.91,1.372a3.675,3.675,0,0,1,.516,1.046,12.116,12.116,0,0,0,1.215,2.621c.451.866.707,1.193.972,1.222.2.031.223.062.1.19-.221.2-.081.531.732,1.723a20.753,20.753,0,0,1,1.363,2.493,11.142,11.142,0,0,0,1.03,1.868,1.421,1.421,0,0,1,.324.92,5.956,5.956,0,0,0,.768,2.3,1.488,1.488,0,0,1,.248.655,1.539,1.539,0,0,0,.238.655,17.14,17.14,0,0,1,1.031,3.544,3.108,3.108,0,0,0,.271.995,3.328,3.328,0,0,1,.273,1.09,4.634,4.634,0,0,0,.306,1.249,10.158,10.158,0,0,1,.413,1.481,2.333,2.333,0,0,0,.239.847.889.889,0,0,1,.1.55,8.449,8.449,0,0,0,.247,1.949c.022.137.057.572.07.943.013.265.036.487.058.636.011.021.011.042.022.063a.153.153,0,0,0,.021.063s0,.011.011.01a.4.4,0,0,1,.022.116l.011.01c.022.18.035.519.038.9v.074c0,.244.015.551.017.869.024.382.038.763.051,1.07a14.937,14.937,0,0,1-.008,1.845c-.04.3-.058.8-.075,1.315-.01.17-.009.339-.007.5v.191l-.01.031v.011a7.013,7.013,0,0,0-.026.763v.022a7.032,7.032,0,0,1-.12,1c-.011.022-.01.054-.021.085a1.022,1.022,0,0,0,.005.657c0,.148-.009.318-.007.5a2.752,2.752,0,0,0-.094,1.644.386.386,0,0,1,.075.105l-.01.149a.41.41,0,0,1-.126.159.448.448,0,0,0-.094.128.989.989,0,0,0-.134.489,9.823,9.823,0,0,1-.191,1.337,2.681,2.681,0,0,0-.087,1.2,2.98,2.98,0,0,1,.008,1.092c-.06.456-.16,1.263-.22,1.782a22.946,22.946,0,0,1-.517,3.174,1.789,1.789,0,0,0,.029,1.187c.151.264.141.391-.07.594a1.5,1.5,0,0,0-.333.787.916.916,0,0,0,.335.962c.384.411.4.485.2,1.345a.186.186,0,0,1-.021.074l1.776-.468c.164-.659.39-1.657.5-2.219.092-.563.236-1.221.3-1.465a.8.8,0,0,0-.079-.646,7.649,7.649,0,0,1,.222-3.023,9.66,9.66,0,0,0,.178-1.793c0-.042.01-.085.009-.138.048-.7.1-1.7.178-3.128a54.452,54.452,0,0,0,.193-5.546,2.5,2.5,0,0,1,.159-1.347.921.921,0,0,0,.131-1.008,4.83,4.83,0,0,1-.2-1.271,13.417,13.417,0,0,0-.661-3.515c-.064-.063-.054-.233.03-.371a1.156,1.156,0,0,0,.026-.668,2,2,0,0,1-.079-.721,2.859,2.859,0,0,0-.134-.836,7.613,7.613,0,0,1-.148-1.462,7.758,7.758,0,0,0-.353-2.033,12.388,12.388,0,0,1-.449-1.979,17.768,17.768,0,0,0-.494-2.286c-.217-.762-.423-1.566-.468-1.788a8.971,8.971,0,0,0-.348-1.259,5.615,5.615,0,0,1-.273-1.228,2.654,2.654,0,0,0-.294-1.016,29.384,29.384,0,0,1-1.244-3.7,5.165,5.165,0,0,0-.184-.6,6.016,6.016,0,0,1-.217-.666,9.52,9.52,0,0,0-.714-2.147.428.428,0,0,1-.13-.339c.072-.233-.3-.57-.458-.431a1.8,1.8,0,0,0-.046.923c.046.435.037.763-.027.732a5.047,5.047,0,0,1-.473-.951,5.676,5.676,0,0,0-.484-1.036,2.007,2.007,0,0,1-.269-.58,10.247,10.247,0,0,0-1.682-2.713,25.412,25.412,0,0,1-1.574-2.459c-.461-.813-1.307-2.121-1.874-2.923A12.29,12.29,0,0,1,308.1,83.9a3.751,3.751,0,0,0-.536-.939c-.246-.359-.663-.96-.921-1.361s-.707-1.044-1.006-1.456a18.833,18.833,0,0,0-1.335-1.592,6.654,6.654,0,0,0-1.077-.978,16.746,16.746,0,0,1-1.748-1.535c-.725-.705-1.5-1.431-1.727-1.62a1.016,1.016,0,0,1-.449-.6,6.781,6.781,0,0,0-2.1-1.989,4.54,4.54,0,0,1-.894-.683,7.515,7.515,0,0,0-.8-.62,5.069,5.069,0,0,1-.8-.652,4.47,4.47,0,0,0-1.075-.777,4.217,4.217,0,0,1-.947-.544,4.457,4.457,0,0,0-1.052-.565,2.284,2.284,0,0,1-.734-.4,8.461,8.461,0,0,0-2.021-1.152,7.172,7.172,0,0,1-1.852-1.407,2.061,2.061,0,0,0-.915-.566.65.65,0,0,1-.414-.145,23.241,23.241,0,0,0-2.211-1.139Zm37.234,29.425a4.817,4.817,0,0,1-.74-1.257,16.09,16.09,0,0,0-2.172-3.395c-.088-.03-.151-.22-.12-.4a1.291,1.291,0,0,0-.262-.723,2.378,2.378,0,0,1-.4-.719,3.138,3.138,0,0,0-.47-.83,8.291,8.291,0,0,1-.785-1.467,8.726,8.726,0,0,0-1.219-1.982,13.725,13.725,0,0,1-1.291-1.877,18.984,18.984,0,0,0-1.472-2.174c-.533-.7-1.095-1.446-1.224-1.675a12.3,12.3,0,0,0-.892-1.158,6.251,6.251,0,0,1-.794-1.171,2.86,2.86,0,0,0-.737-.927,33.339,33.339,0,0,1-2.815-3.318,6.124,6.124,0,0,0-.446-.548,4.88,4.88,0,0,1-.494-.6,10.563,10.563,0,0,0-1.641-1.928.456.456,0,0,1-.267-.288c-.035-.279-.553-.466-.652-.236a2.066,2.066,0,0,0,.354.99c.223.433.351.788.284.777a4.216,4.216,0,0,1-.881-.781,7.4,7.4,0,0,0-.938-.86,2.145,2.145,0,0,1-.51-.484,5.84,5.84,0,0,0-1.381-1.142,1.29,1.29,0,0,1-.079.311,3.253,3.253,0,0,1-.381.864,4.253,4.253,0,0,1-.374.53.14.14,0,0,0,.07-.015c.239-.07.268-.03.177.159-.132.306.161.6,1.47,1.462a22.907,22.907,0,0,1,2.452,1.987,11.429,11.429,0,0,0,1.822,1.487,1.6,1.6,0,0,1,.719.82,6.2,6.2,0,0,0,1.76,2.034,2,2,0,0,1,.527.591,1.645,1.645,0,0,0,.507.574,18.779,18.779,0,0,1,2.545,3.247,3.566,3.566,0,0,0,.7.941,3.983,3.983,0,0,1,.74,1,4.81,4.81,0,0,0,.837,1.18,11.165,11.165,0,0,1,1.043,1.378,2.469,2.469,0,0,0,.611.774,1.039,1.039,0,0,1,.321.52,10.462,10.462,0,0,0,1.067,1.953c.094.141.306.578.484.964a3.553,3.553,0,0,0,.432.769,4.542,4.542,0,0,1,.519,1.052c.229.545.652,1.483.918,2.089a17.445,17.445,0,0,1,.771,1.944c.155.485.486,1.447.785,2.167a11.574,11.574,0,0,1,.613,1.994c.052.387.2.748.318.8a.407.407,0,0,1,.183.4,3.24,3.24,0,0,0,.615,1.9c.169.073.215.22.109.466a1.107,1.107,0,0,0,.036.761,11.268,11.268,0,0,1,.369,1.506,3.21,3.21,0,0,0,.429,1.3,3.417,3.417,0,0,1,.468,1.148c.126.51.367,1.406.545,1.983a31.07,31.07,0,0,1,.827,3.587,1.955,1.955,0,0,0,.519,1.243.466.466,0,0,1,.186.663,1.939,1.939,0,0,0,0,.991,1.035,1.035,0,0,0,.747.86c.556.249.6.322.788,1.313a4.946,4.946,0,0,1,.113,1.214,2.715,2.715,0,0,0,.123.854,6.977,6.977,0,0,1,.216,1.312c.023.347.114,1.023.2,1.523a14.15,14.15,0,0,1,.215,1.694,8.651,8.651,0,0,0,.213,1.53,47.866,47.866,0,0,1-.535,9.277,34.642,34.642,0,0,0-.423,3.7c-.046.527-.142,1.277-.223,1.678a8.346,8.346,0,0,0-.151,1.09,9.544,9.544,0,0,1-.126,1.092c-.066.407-.151.963-.18,1.241-.045.272-.18,1.051-.318,1.728-.313,1.612-.3,2.307.033,2.644.218.231.242.451.079,1.062-.075.258-.161.649-.231,1.02-.01,0-.01,0-.006.015-.319.89-.689,2.041-.958,3.026a59.535,59.535,0,0,1-3.954,10.548,37.635,37.635,0,0,1-4.272,7.637c-.852,1.216-3.215,4.381-3.56,4.759-.182.212-.8.876-1.34,1.486a14.62,14.62,0,0,0-1.321,1.632,5.961,5.961,0,0,1-.855,1.078c-.308.313-1.009,1.075-1.545,1.708a8.012,8.012,0,0,1-1.465,1.4,1.087,1.087,0,0,0-.213.135,2.76,2.76,0,0,0-.6.607,1.761,1.761,0,0,1-.716.628.927.927,0,0,0-.487.372c-.214.518-1.123,1.3-1.373,1.182-.383-.166-.644.04-1.333,1.09a4.123,4.123,0,0,1-1,1.16,4.379,4.379,0,0,0-.96.814,13.62,13.62,0,0,1-1.384,1.249c-.437.339-.975.743-1.2.921-1.44,1.107-3.8,2.782-4.59,3.25-.775.448-3.42,2.2-5.077,3.367a26.007,26.007,0,0,1-6.339,3.258,41.036,41.036,0,0,1-5.883,2.073,17.333,17.333,0,0,0-1.715.542,12.624,12.624,0,0,1-3.094.875.16.16,0,0,1-.075,0c-.184-.015-.357.028-.386.116a.012.012,0,0,0-.007.015c-.037.065-.221.113-.412.113a.035.035,0,0,1-.026,0,.666.666,0,0,1-.147.046c-.873.233-1.827.485-2.1.567a38.048,38.048,0,0,1-4.864,1.121,4.155,4.155,0,0,0-1.068.157,15.174,15.174,0,0,1-2.271.23l1.526,1.351a12.454,12.454,0,0,1,1.934-.439c.577-.051,2.725-.461,4.164-.8.483-.129,1.609-.361,2.493-.534s2.164-.466,2.833-.669c.559-.159,1.048-.3,1.45-.411a7.626,7.626,0,0,1,1.765-.384c.066.038.218-.061.34-.2a1.271,1.271,0,0,1,.783-.3,9.793,9.793,0,0,0,1.6-.356,3.977,3.977,0,0,1,1.2-.247,4.464,4.464,0,0,0,2.225-.859,4.926,4.926,0,0,1,1.969-1.279c.563-.02,1.7-.665,3.353-1.855a9.652,9.652,0,0,1,2.256-1.291,8.529,8.529,0,0,0,2.006-1.09c1.258-.895,2.408-1.645,3.468-2.269a2.184,2.184,0,0,0,.683-.551,4.743,4.743,0,0,1,1.051-.838,8.18,8.18,0,0,0,1.449-1.148,8.135,8.135,0,0,1,1.195-1.022c1.015-.708,5.31-4.477,7.5-6.6.663-.633,1.436-1.372,1.728-1.629a28.892,28.892,0,0,0,4.093-4.31,2.217,2.217,0,0,1,.521-.576,10.632,10.632,0,0,0,2.453-2.971c.094-.47.5-1.05,2.2-3.175a13.129,13.129,0,0,0,.969-1.428c1.1-1.974,1.789-3.2,2.251-4.023l.1-.039.854-.314,1.757-4.182a.552.552,0,0,0,.231-.282,2.166,2.166,0,0,0,.15-.454A3.518,3.518,0,0,1,323,161.8c.905-2.165,1.5-3.764,1.744-4.6.039-.156.092-.342.146-.528.042-.119.095-.241.143-.375a29.917,29.917,0,0,0,1.2-3.451c.135-.524.412-1.715.651-2.649.985-3.952,1.5-6.8,1.341-7.374a.872.872,0,0,1-.034-.469,8.375,8.375,0,0,0-.066-1.83,27.744,27.744,0,0,0,.47-4.8c.034-.713.086-1.382.116-1.47a15.918,15.918,0,0,0,.041-2.9,3.223,3.223,0,0,1,.087-.963.887.887,0,0,0,.034-.586c-.45-1.3-.4-3.54.1-4.081a1.336,1.336,0,0,0-.248-1.617.55.55,0,0,1-.13-.647,1.754,1.754,0,0,0,.054-.823c-.052-.259-.113-.6-.14-.771-.07-.558-.225-1.4-.5-2.763-.154-.74-.375-2-.483-2.784-.114-.768-.311-1.936-.452-2.579-.126-.636-.267-1.407-.311-1.681a.95.95,0,0,0-.347-.651,8.922,8.922,0,0,1-1.068-3.3,46.032,46.032,0,0,0-1.784-5.52,62.278,62.278,0,0,0-2.166-5.94,2.991,2.991,0,0,1-.413-1.489C321.119,94.807,320.954,94.135,320.694,94.023Z" transform="translate(-167.638 -41.123)" fill="#448843"/><g transform="translate(47.535 16.331)"><g transform="translate(0 1.593)"><path d="M259.416,70.927c-.647.711-1.877.178-2.9.051l.076-.635q.4.057.837.152a2.58,2.58,0,0,0,1.421.089,6.324,6.324,0,0,0-1.84-1.981,13.6,13.6,0,0,0-2.054-.876h-.014l-.444-.013c-.47,0-.951,0-1.433-.025-.635-.025-1.268-.076-1.877-.152a22.364,22.364,0,0,1-3.729-.724,17.776,17.776,0,0,0,2.6,1.536,22.147,22.147,0,0,0,3.247,1.295c.558.166,1.116.318,1.674.432.532.114,1.066.19,1.547.254l-.013.647c-.519-.076-1.091-.166-1.66-.279s-1.155-.266-1.738-.444a22.636,22.636,0,0,1-3.335-1.333,13.309,13.309,0,0,1-4.071-2.819h-.014V66.09h-.013a4.511,4.511,0,0,1-.431-.609,1.393,1.393,0,0,1,.342-.051h.014a.012.012,0,0,0,.012-.013c.05,0,.114-.012.177-.012q.362-.019.837,0c.241.012.495.025.774.051a18.965,18.965,0,0,0,3.919.825c.444.051.888.089,1.358.114h.012c.685.178,1.357.356,1.966.559.127.038.241.076.367.127.533.178,1.028.381,1.459.572h.012c.3.139.583.279.812.406C258,68.439,259.936,70.356,259.416,70.927Z" transform="translate(-244.272 -64.756)" fill="#a7396a"/><path d="M255.9,70.58l-.177.609c-.495-.076-1.053-.152-1.611-.266-.583-.127-1.192-.279-1.8-.457a23.192,23.192,0,0,1-3.424-1.371c-1.4-.673-3.856-2.07-4.794-3.695l-.431-.737.571-.14.127-.038.126-.025a2.667,2.667,0,0,1,.368-.063c.254-.025.571-.038.913-.038.178,0,.355.013.546.025a2.354,2.354,0,0,1,.279.025c.545.038,1.141.114,1.737.2-.38.064-.748.127-1.091.2-.254.064-.483.114-.673.166l.229.076a18.965,18.965,0,0,0,3.919.825c.444.051.888.089,1.358.114h.012c.139.013.279.025.419.025.47.025.939.025,1.4.025l.431.013h.241a14.441,14.441,0,0,1,1.42.559h.025a10.744,10.744,0,0,1,1,.483c.012.013.038.013.05.038.6.356,2.27,1.841,2.448,2.946a1.025,1.025,0,0,1-.241.876,1.817,1.817,0,0,1-1.42.558,6.246,6.246,0,0,1-1.306-.177c-.254-.051-.495-.1-.723-.14h-.014l.089-.622.076-.635q.4.057.837.152" transform="translate(-243.662 -64.358)" fill="#a7396a"/><path d="M257.8,69.007a13.6,13.6,0,0,0-2.054-.876h-.013c-.152-.063-.317-.127-.481-.177-.583-.191-1.231-.369-1.852-.521s-1.218-.279-1.7-.38a29.109,29.109,0,0,0-3.589-.559c-.012.012-.012,0-.025,0-.279-.025-.545-.038-.774-.05a10.512,10.512,0,0,0,.939.774,17.778,17.778,0,0,0,2.6,1.536,22.139,22.139,0,0,0,3.247,1.295c.558.166,1.116.318,1.674.432" transform="translate(-245.065 -65.159)" fill="#a7396a"/></g><g transform="translate(0.14)"><path d="M260.058,63.746a8.85,8.85,0,0,0-1.94-.774,15.1,15.1,0,0,0-2.942-.165c-.583,0-1.192.025-1.827.063s-1.294.1-1.928.177c-1.281.14-2.5.331-3.5.546a3.838,3.838,0,0,0-.406.1c-.14.025-.266.063-.393.089-.33.089-.622.178-.863.266l-.013.013a3.076,3.076,0,0,0-.482.2.839.839,0,0,0,.14.089.3.3,0,0,0,.088.051,2.791,2.791,0,0,0,.508.279,8,8,0,0,0,.989.406c.013,0,.013.012.025,0a18.921,18.921,0,0,0,3.932.825c.444.051.9.089,1.358.114.152.014.317.014.482.026.621.025,1.255.025,1.851.025h.089c.546,0,1.066-.025,1.573-.063h.025a15.639,15.639,0,0,0,1.674-.228c1-.178,2.36-.051,2.7-.889C261.326,64.584,260.768,64.127,260.058,63.746Zm-.85,1.321c-.279.025-.558.051-.812.089h-.012a15.952,15.952,0,0,1-3.006.3h-.241l-.431-.013c-.457,0-.926,0-1.4-.025-.14,0-.279-.012-.419-.025h-.012c-.47-.025-.913-.063-1.358-.114a18.964,18.964,0,0,1-3.919-.825l-.229-.076c.19-.051.419-.1.673-.166.343-.076.71-.139,1.091-.2.735-.14,1.535-.254,2.347-.343.634-.063,1.281-.127,1.9-.165s1.23-.063,1.8-.063a13.482,13.482,0,0,1,2.8.165,7.742,7.742,0,0,1,1.763.7,3.455,3.455,0,0,1,.735.5A3.66,3.66,0,0,1,259.208,65.067Z" transform="translate(-244.61 -62.166)" fill="#a7396a"/><path d="M259.641,62.792a9.521,9.521,0,0,0-2.118-.838,15.18,15.18,0,0,0-3.069-.178c-.6,0-1.23.025-1.864.063s-1.307.114-1.966.178c-1.1.127-2.169.292-3.12.47-.152.025-.3.063-.444.089-.215.05-.418.1-.6.14a7.806,7.806,0,0,0-1.534.52,1.119,1.119,0,0,0-.215.1l-.267.152-.127.076-.431.267.571.406.215.153a3.146,3.146,0,0,0,.482.3h.013v.012h.014a9.786,9.786,0,0,0,1.75.711,22.363,22.363,0,0,0,3.729.724c.609.076,1.243.127,1.877.152.481.025.963.025,1.433.025l.444.013h.013c.519,0,1.027-.025,1.534-.076h.012q.608-.039,1.18-.114c.254-.038.494-.076.735-.127s.47-.063.711-.089c.913-.089,2.054-.19,2.46-1.168S260.1,63.045,259.641,62.792Z" transform="translate(-243.889 -61.77)" fill="#a7396a"/></g></g><g transform="translate(63.135 12.311)"><path d="M282.381,61.525a6.4,6.4,0,0,0-1.155-1.5,13.919,13.919,0,0,0-2.244-1.384c-.482-.254-.989-.47-1.51-.686s-1.078-.419-1.636-.622c-.279-.089-.546-.191-.824-.28s-.546-.152-.812-.215c-.532-.14-1.04-.254-1.509-.356-.025,0-.05-.013-.076-.013-.343-.063-.66-.114-.939-.152l-.267-.038h-.139a2.029,2.029,0,0,0-.482,0,.253.253,0,0,0-.139,0h-.013v.013a.137.137,0,0,0-.1,0c.013.012.013.038.025.05a2.541,2.541,0,0,0,.342.534.4.4,0,0,0,.089.127,7.454,7.454,0,0,0,1.028,1.1,17.529,17.529,0,0,0,2.448,1.828q.685.439,1.408.838c.483.267.965.534,1.459.775a20.166,20.166,0,0,0,2.841,1.117c.444.127.913.356,1.356.483a1.236,1.236,0,0,0,1.18-.127C282.977,62.808,282.749,62.173,282.381,61.525Zm-.673,1.016a6.571,6.571,0,0,1-.646-.228,5.758,5.758,0,0,0-.7-.254,20.234,20.234,0,0,1-2.765-1.079c-.469-.228-.951-.495-1.42-.761s-.926-.521-1.369-.813a15.369,15.369,0,0,1-2.359-1.777,8.407,8.407,0,0,1-.673-.66c.241.038.508.089.787.14.457.089.951.216,1.471.343.266.076.532.14.774.216.279.089.545.178.824.279.532.19,1.078.394,1.6.6s.989.419,1.459.66a13.076,13.076,0,0,1,2.13,1.32,5.32,5.32,0,0,1,1.015,1.321,3.59,3.59,0,0,1,.33.749A.918.918,0,0,1,281.708,62.541Z" transform="translate(-269.596 -55.633)" fill="#a7396a"/><path d="M282.339,60.812a6.8,6.8,0,0,0-1.306-1.676,13.806,13.806,0,0,0-2.346-1.448,13.422,13.422,0,0,0-1.573-.711c-.533-.228-1.091-.431-1.649-.635-.279-.089-.571-.191-.863-.292-.278-.076-.558-.152-.824-.215s-.507-.14-.748-.191c-.279-.063-.558-.127-.812-.178-.088-.013-.177-.038-.266-.05s-.14-.026-.2-.038c-.3-.051-.583-.089-.85-.114h-.025c-.14-.012-.279-.025-.406-.025a4.423,4.423,0,0,0-.622.038l-.1.013-.635.1-.1.013.114.229.254.546a.3.3,0,0,0,.051.089,3.015,3.015,0,0,0,.241.432.326.326,0,0,0,.063.076,7.842,7.842,0,0,0,1.281,1.409,19.781,19.781,0,0,0,2.524,1.9c.469.292.951.584,1.446.838.482.279.989.559,1.471.8a21.281,21.281,0,0,0,2.943,1.143h.012c.19.063.393.153.609.228a6.13,6.13,0,0,0,.761.267,2.489,2.489,0,0,0,.71.114,1.666,1.666,0,0,0,1.052-.356C283.291,62.475,282.581,61.231,282.339,60.812Z" transform="translate(-269.01 -55.238)" fill="#a7396a"/></g><g transform="translate(93.434 11.314)"><path d="M329.783,59.509a10.507,10.507,0,0,0-.989-.889c-.152-.127-.33-.254-.507-.393-.228-.178-.482-.356-.748-.546a1.878,1.878,0,0,0-.216-.14c-.431-.3-.862-.572-1.268-.825-.3-.05-.622-.127-.926-.191-.431-.1-.862-.216-1.281-.343h-.013a23.637,23.637,0,0,0-2.384-1.143,13.111,13.111,0,0,0,1.345-.1c-.418-.2-.824-.381-1.2-.534-.152-.063-.3-.114-.457-.178a10.829,10.829,0,0,0-1.408-.444,3.025,3.025,0,0,0-.52-.089.244.244,0,0,0-.089-.013l-.787-.05-.089-.013.026.089.19.762c.026.1.063.215.1.33a.045.045,0,0,0,.013.038,7.232,7.232,0,0,0,1.091,1.93c.292.394.622.788.977,1.181.178.191.368.381.558.572s.393.393.6.584a21.178,21.178,0,0,0,2.689,2.171,16.289,16.289,0,0,0,2.93,1.676c.216.089.431.2.647.317a4.148,4.148,0,0,0,1.852.648,1.673,1.673,0,0,0,.824-.216,1.013,1.013,0,0,0,.52-.762C331.419,61.871,330.215,59.954,329.783,59.509Z" transform="translate(-318.241 -53.618)" fill="#a7396a"/></g><g transform="translate(93.523 10.102)"><path d="M333.631,55.04a6.59,6.59,0,0,0-2.892-2.514,6.33,6.33,0,0,0-1.091-.318,11.393,11.393,0,0,0-1.23-.228c-.153-.026-.3-.051-.469-.076-.342-.05-.7-.1-1.078-.14-.177.051-.367.1-.545.14-.532.127-1.053.241-1.572.331a1.3,1.3,0,0,1-.2.025h-.063c-.571-.013-1.129-.013-1.661,0s-1.041.063-1.484.114l-.33.038q.571-.342,1.37-.762c-.393.025-.761.051-1.116.089-.165.025-.317.038-.47.063a5.493,5.493,0,0,0-1.7.444c-.013,0-.013.013-.025.013l-.191.1-.494.254.2.254.291.355c.089.1.191.216.292.318l.037.038a5.544,5.544,0,0,0,1.142.889h.013a.012.012,0,0,0,.012.013c.19.127.393.254.609.368s.457.241.685.356.457.19.685.292c.482.2.99.407,1.522.572s1.065.318,1.624.431l.71.153c.317.063.634.127.939.178.19.025.367.05.558.063h.013a9.652,9.652,0,0,0,1.205.076,2.468,2.468,0,0,0,.431.025c.355,0,.7-.013,1.053-.038a5.7,5.7,0,0,1,.66-.013c.837,0,1.979.013,2.523-.99A1.08,1.08,0,0,0,333.631,55.04Z" transform="translate(-318.386 -51.649)" fill="#a7396a"/></g><g transform="translate(93.434 6.459)"><path d="M333.334,47.088c-.089-.622-.723-.99-2.118-1.219a10,10,0,0,0-2.283-.114,17.088,17.088,0,0,0-2.727.66,32.364,32.364,0,0,0-3.12,1.193,16.126,16.126,0,0,0-4.046,2.361.6.6,0,0,0-.127.127.344.344,0,0,0-.063.076.662.662,0,0,0-.089.1l-.228.318-.292.406.85.254c.013,0,.013,0,.026.012h.025a4.315,4.315,0,0,0,.749.166c.151.025.317.05.495.063.317.025.646.038,1,.038a1.924,1.924,0,0,0,.266-.012,1.8,1.8,0,0,0,.368-.013h.012a12.962,12.962,0,0,0,1.345-.1c.482-.05.989-.114,1.521-.2.559-.089,1.1-.2,1.65-.343l.342-.076c.431-.1.862-.228,1.281-.343a2.116,2.116,0,0,0,.266-.089c.393-.127.787-.266,1.154-.419a13.257,13.257,0,0,0,1.484-.7c.178-.089.38-.178.583-.267C332.421,48.637,333.486,48.18,333.334,47.088Z" transform="translate(-318.241 -45.73)" fill="#a7396a"/></g><g transform="translate(79.09 11.004)"><g transform="translate(0 0.165)"><path d="M306.653,62.018a6.829,6.829,0,0,0-.825-1.7,6.634,6.634,0,0,0-.52-.572H305.3a12.887,12.887,0,0,0-1.116-1.015c-.089-.089-.177-.153-.266-.228-.2-.165-.419-.343-.634-.508s-.457-.317-.685-.483c-.127-.076-.241-.165-.368-.241h-.012c-.343-.241-.7-.47-1.065-.7-.253-.153-.495-.292-.748-.444s-.482-.254-.723-.381c-.457-.228-.9-.444-1.319-.622a.012.012,0,0,0-.012-.013c-.026-.012-.038-.012-.064-.025-.33-.14-.647-.266-.926-.356-.089-.038-.178-.063-.254-.089a2.195,2.195,0,0,0-.367-.089,2.643,2.643,0,0,0-.482-.076,4.8,4.8,0,0,0,.2.609c.025.051.05.1.076.165l.012.013a6.876,6.876,0,0,0,.761,1.27,18.545,18.545,0,0,0,1.953,2.3c.368.381.761.749,1.167,1.1s.812.724,1.23,1.054a18.236,18.236,0,0,0,2.537,1.689c.406.216.824.533,1.243.749a1.666,1.666,0,0,0,.609.216,1.027,1.027,0,0,0,.609-.089C306.97,63.389,306.881,62.716,306.653,62.018Zm-.533.99a1.124,1.124,0,0,1-.393-.139c-.19-.1-.393-.229-.583-.356-.228-.14-.444-.279-.659-.394a18.046,18.046,0,0,1-2.435-1.625c-.406-.33-.812-.673-1.2-1.041q-.59-.514-1.141-1.067a18.757,18.757,0,0,1-1.662-1.93c.406.279.849.546,1.306.8.241.127.47.254.7.368s.494.254.748.381a28.118,28.118,0,0,0,3.095,1.283,11.007,11.007,0,0,1,1.446,1.435,5.652,5.652,0,0,1,.71,1.5,2.6,2.6,0,0,1,.178.8A.309.309,0,0,1,306.121,63.008Z" transform="translate(-295.442 -53.803)" fill="#a7396a"/><path d="M306.742,61.407a6.9,6.9,0,0,0-.862-1.816.659.659,0,0,0-.076-.1,6.719,6.719,0,0,0-.672-.724c-.317-.318-.7-.66-1.129-1.016-.735-.254-1.509-.559-2.283-.9h-.012c-.343-.241-.7-.47-1.065-.7-.254-.153-.495-.292-.748-.444s-.482-.254-.723-.381c-.457-.228-.9-.444-1.319-.622a.012.012,0,0,0-.012-.013,3.1,3.1,0,0,1-.254-.177l.533.038c.367.025.761.076,1.18.127-.444-.216-.863-.419-1.268-.6-.153-.063-.292-.114-.431-.178-.026-.013-.063-.025-.089-.038H297.5c-.241-.1-.481-.178-.684-.241-.013,0-.025-.012-.038-.012a4.845,4.845,0,0,0-.71-.153,1.239,1.239,0,0,0-.292-.038l-.165-.012h-.177l-.494-.026.19.813a4.225,4.225,0,0,0,.151.483.8.8,0,0,0,.064.152,7.464,7.464,0,0,0,.938,1.651,18.619,18.619,0,0,0,2.017,2.374c.393.394.785.774,1.192,1.13s.849.749,1.268,1.08a17.072,17.072,0,0,0,2.626,1.739v.013a4.392,4.392,0,0,1,.558.343c.229.14.47.292.7.419a2.448,2.448,0,0,0,.8.266,2.227,2.227,0,0,0,.279.025,1.6,1.6,0,0,0,.723-.177C307.047,63.387,307.149,62.613,306.742,61.407Z" transform="translate(-294.935 -53.382)" fill="#a7396a"/></g><g transform="translate(0.063)"><path d="M309.192,57.253a7.961,7.961,0,0,0-1.611-1.435,12.064,12.064,0,0,0-1.155-.6c-.431-.191-.9-.369-1.471-.559-.519-.178-1.065-.355-1.648-.534-.482-.139-.977-.254-1.472-.368l-.279-.063c-.584-.114-1.168-.241-1.725-.33q-.647-.1-1.218-.153l-.342-.038c-.266-.025-.507-.038-.736-.051-.2-.012-.392-.012-.57-.012a4.391,4.391,0,0,0-.812.076h-.013c-.076.012-.127.025-.177.038l-.318.076-.19.05-.419.114.343.444.241.318a3.782,3.782,0,0,0,.3.355l.14.14.012.013c.127.114.241.228.393.355a10.8,10.8,0,0,0,1.1.838c.406.279.849.546,1.306.8.241.127.47.254.7.368s.494.254.748.381a28.124,28.124,0,0,0,3.094,1.283q.724.266,1.408.457h.013a9.554,9.554,0,0,0,1.078.267c.2.05.406.089.609.127s.431.089.66.152a8.43,8.43,0,0,0,.824.178,2.446,2.446,0,0,0,.507.051,1.624,1.624,0,0,0,.356-.038,1.551,1.551,0,0,0,.888-.432C310.257,59.031,310.067,58.269,309.192,57.253Z" transform="translate(-295.037 -53.114)" fill="#a7396a"/></g></g><g transform="translate(33.202 10.838)"><path d="M225.258,57.124v-.012c-.013-.381-.05-.724-.089-1.016,0-.025-.012-.05-.012-.089-.153-.724-.888-2.514-1.788-3.01a1.069,1.069,0,0,0-.977-.063,2.977,2.977,0,0,0-1.471,2.464c-.038.228-.089.444-.14.635a12.646,12.646,0,0,0-.406,3.378,15.016,15.016,0,0,0,.431,3.365,13.343,13.343,0,0,0,.47,1.524,12.3,12.3,0,0,0,.621,1.358,6.31,6.31,0,0,0,1.561,1.981l.659.533v-.013l.254-.622.012-.026.051-.127a5.588,5.588,0,0,0,.178-.584c.038-.19.088-.406.127-.647.012-.1.025-.216.05-.33.012-.165.038-.343.063-.533.05-.406.076-.838.115-1.295l-.483,1c-.076.165-.151.318-.215.444a1.867,1.867,0,0,0-.05-.228v-.038c.05-.418.089-.9.127-1.409s.089-1.067.127-1.612c.025-.444.051-.9.076-1.358a14.155,14.155,0,0,1,.634-1.993c.026-.076.063-.153.089-.216C225.284,58.051,225.284,57.568,225.258,57.124Z" transform="translate(-220.375 -52.845)" fill="#a7396a"/><g transform="translate(2.494 0.178)"><path d="M230.457,53.516a.955.955,0,0,0-.761-.382c-1.078.014-1.675.991-2.169,1.778-.114.178-.228.368-.342.533-.166.216-.317.445-.47.673s-.279.483-.418.737c-.039.089-.089.165-.127.254a13.583,13.583,0,0,0-.6,1.321.072.072,0,0,0-.013.05,15.443,15.443,0,0,0-.938,3.276,12.884,12.884,0,0,0-.166,3.123.159.159,0,0,0,.013.076,7.326,7.326,0,0,0,.3,1.625.044.044,0,0,0,.014.038,3.919,3.919,0,0,0,.292.711l.419.774.418-.457h.012l.012-.026.153-.165a4.005,4.005,0,0,0,.418-.559c.127-.19.241-.406.368-.647a6.618,6.618,0,0,0,.317-.6l.609-1.295c.228-.47.457-.977.672-1.473.394-.838.774-1.727,1.129-2.565l.216-.508a20.274,20.274,0,0,0,.926-2.6C230.863,56.779,231.129,54.378,230.457,53.516Z" transform="translate(-224.427 -53.134)" fill="#a7396a"/></g></g><g transform="translate(63.236 0)"><path d="M279.347,36.326c-1.041-.318-2.017.737-2.943,1.321-.241.152-.482.318-.71.482s-.457.369-.672.572a14.779,14.779,0,0,0-1.281,1.244,15.372,15.372,0,0,0-2.055,2.819,12.288,12.288,0,0,0-1.217,2.819,6.261,6.261,0,0,0-.254,1.5l-.012.013v.038a.017.017,0,0,0,0,.025,3.478,3.478,0,0,0,.05.749c.051-.025.114-.05.177-.089a.765.765,0,0,0,.076-.051v-.012h.013a1.082,1.082,0,0,0,.177-.114c.089-.064.19-.14.291-.216s.241-.191.368-.292c.178-.14.356-.279.546-.445v-.012a.012.012,0,0,0,.012-.012c.115-.153.228-.305.367-.47a12.373,12.373,0,0,1,.964-1.08,12.722,12.722,0,0,1,1.192-1.079c.3-.241.621-.47.951-.7a.012.012,0,0,0,.012-.012.013.013,0,0,0,.013-.013.012.012,0,0,0,.012-.013h.013c.494-.508.977-1.016,1.433-1.5.089-.089.177-.178.254-.266.406-.419.774-.825,1.078-1.194.2-.241.381-.47.52-.673a6.973,6.973,0,0,0,.774-1.816C279.7,37.126,279.752,36.439,279.347,36.326Zm-.457,1.346a7.714,7.714,0,0,1-.685,1.638A15.019,15.019,0,0,1,276.772,41a14.016,14.016,0,0,0-1.637.965c-.52.343-1.014.711-1.472,1.067a13.675,13.675,0,0,0-1.306,1.181,12.463,12.463,0,0,0-1.065,1.181,2.727,2.727,0,0,0-.178.241,12.322,12.322,0,0,1,1.116-2.552,14.46,14.46,0,0,1,1.979-2.7,13.924,13.924,0,0,1,1.23-1.206c.2-.177.418-.368.634-.533s.443-.3.659-.444c.241-.153.469-.33.71-.5.571-.431,1.078-.838,1.572-.8A2.4,2.4,0,0,1,278.889,37.672Z" transform="translate(-269.568 -35.632)" fill="#a7396a"/><path d="M279.13,35.319c-1.091-.331-2.054.381-2.84.952a6.21,6.21,0,0,1-.622.444c-.253.165-.507.33-.761.521-.228.19-.469.381-.7.584a17.858,17.858,0,0,0-1.319,1.283,16.006,16.006,0,0,0-2.156,2.946,13.934,13.934,0,0,0-1.281,2.971,7.462,7.462,0,0,0-.279,1.841,1.582,1.582,0,0,0,.012.241,3.463,3.463,0,0,0,.051.521l.139.812.418-.19.241-.114.089-.038c.075-.038.164-.089.253-.14a5.528,5.528,0,0,0,.609-.431c.051-.038.114-.089.165-.127l.406-.331c.076-.063.165-.14.253-.215.05-.038.115-.1.177-.153.33-.279.685-.609,1.053-.953-.38.178-.735.343-1.078.483l-.571.229c.038-.063.076-.1.115-.166v-.012a.012.012,0,0,0,.012-.012c.114-.153.228-.305.367-.47a12.35,12.35,0,0,1,.964-1.08,12.711,12.711,0,0,1,1.192-1.079c.3-.241.621-.47.951-.7a.012.012,0,0,0,.012-.012.013.013,0,0,0,.013-.013.012.012,0,0,0,.012-.013h.013a3.049,3.049,0,0,0,.393-.266,15.757,15.757,0,0,1,1.5-.9,1.412,1.412,0,0,1,.2-.089c.419-.432.786-.838,1.078-1.193.254-.3.47-.572.635-.813a1.107,1.107,0,0,0,.076-.127,8.133,8.133,0,0,0,.786-1.892C280.171,36.005,279.651,35.472,279.13,35.319Z" transform="translate(-269.175 -35.235)" fill="#a7396a"/><g transform="translate(0.19 3.471)"><path d="M283.548,42.152c-.685-.6-1.966.064-3.006.318a10.39,10.39,0,0,0-1.611.521c-.025.013-.038.013-.063.026-.495.215-1,.431-1.484.686l-.076.038a12.046,12.046,0,0,0-1.56.927c-.178.114-.343.229-.508.343l-.025.026c-.317.216-.609.444-.9.673a11.9,11.9,0,0,0-1.256,1.118,13.136,13.136,0,0,0-1.015,1.13,2.007,2.007,0,0,0-.241.355c-.012.013-.025.013-.025.026l-.026.012a7.97,7.97,0,0,0-.457.686,1.013,1.013,0,0,0-.114.241,2.3,2.3,0,0,0-.228.534.2.2,0,0,0-.038.114.832.832,0,0,0-.05.127,2.668,2.668,0,0,0,.532-.127h.013c.089-.038.177-.064.279-.1.165-.05.329-.114.52-.19.14-.05.292-.114.457-.178.063-.025.139-.051.2-.076.431-.191.913-.407,1.408-.648s1.027-.47,1.573-.724,1.078-.533,1.6-.812q.818-.381,1.56-.762c.495-.254.964-.521,1.382-.762a11.951,11.951,0,0,0,1.078-.647,8.124,8.124,0,0,0,1.459-1.422C283.433,42.977,283.814,42.393,283.548,42.152Zm-1.1,1.041a8.546,8.546,0,0,1-1.331,1.308c-.279.191-.635.394-1.041.622s-.875.5-1.357.737c-.457.241-.939.483-1.433.711l-.127.063c-.52.279-1.053.546-1.585.8-.279.127-.546.254-.8.368s-.52.241-.774.356l-.3.152c-.38.178-.735.343-1.078.483l-.571.229c.038-.063.076-.1.115-.166v-.012a.012.012,0,0,0,.012-.012c.115-.153.228-.305.367-.47a12.374,12.374,0,0,1,.964-1.079A12.711,12.711,0,0,1,274.7,46.2c.3-.241.621-.47.951-.7a.012.012,0,0,0,.012-.012.013.013,0,0,0,.013-.013.012.012,0,0,0,.012-.013h.013a3.042,3.042,0,0,0,.393-.266,15.769,15.769,0,0,1,1.5-.9,1.417,1.417,0,0,1,.2-.089,15.074,15.074,0,0,1,1.382-.622,10.549,10.549,0,0,1,1.509-.508h.014c.266-.063.545-.152.824-.241a5.533,5.533,0,0,1,1.281-.292h.1A4.533,4.533,0,0,1,282.444,43.193Z" transform="translate(-270.015 -41.273)" fill="#a7396a"/><path d="M283.435,41.285c-.786-.7-1.876-.355-2.828-.05-.254.076-.495.152-.736.216a6.779,6.779,0,0,0-.825.228c-.267.089-.558.19-.888.33a1.9,1.9,0,0,0-.228.1c-.482.191-.964.419-1.433.66a14.02,14.02,0,0,0-1.636.965c-.52.343-1.014.711-1.472,1.067a13.686,13.686,0,0,0-1.306,1.181,12.459,12.459,0,0,0-1.065,1.181,2.736,2.736,0,0,0-.178.241,8.69,8.69,0,0,0-.635.927,3.34,3.34,0,0,0-.266.521l-.012.013V48.9a.017.017,0,0,0,0,.025,3.17,3.17,0,0,0-.2.546l-.114.432-.127.47.368-.038.3-.038.254-.026a1.008,1.008,0,0,0,.177-.025,7.854,7.854,0,0,0,.774-.216c.254-.089.545-.191.85-.318.114-.051.241-.1.367-.152.2-.089.419-.178.635-.279.266-.114.532-.241.811-.381.241-.114.482-.228.735-.343.279-.127.559-.254.825-.381.545-.267,1.09-.534,1.725-.863.495-.241.989-.483,1.458-.724.508-.254.977-.521,1.4-.762.444-.241.824-.47,1.141-.673A9.99,9.99,0,0,0,282.89,43.6C283.32,43.075,284.209,41.983,283.435,41.285Z" transform="translate(-269.484 -40.876)" fill="#a7396a"/></g></g><g transform="translate(47.458 4.581)"><path d="M251.747,43.72c-1.052-.1-1.775,1.079-2.549,1.816a13.784,13.784,0,0,0-2.157,2.641,18.527,18.527,0,0,0-1.572,3.072,10.475,10.475,0,0,0-.875,4.5.661.661,0,0,0,.013.165,3.125,3.125,0,0,0,.127.635h.013a.013.013,0,0,0,.012-.014c.025-.012.051-.038.089-.063a3.048,3.048,0,0,0,.342-.292l.014-.012c.1-.089.2-.178.317-.292q.285-.286.609-.647c.673-.749,1.459-1.74,2.245-2.794.736-.952,1.446-1.968,2.055-2.9a16,16,0,0,0,1.408-2.425,6.627,6.627,0,0,0,.368-1.93C252.254,44.431,252.165,43.758,251.747,43.72Zm-.495,3.136a15.236,15.236,0,0,1-1.344,2.324c-.761,1.13-1.42,2.069-2.042,2.869A37.353,37.353,0,0,1,245.2,55.3a10.674,10.674,0,0,1,.849-3.809,18.724,18.724,0,0,1,1.522-2.971,12.965,12.965,0,0,1,2.054-2.527c.191-.178.381-.393.571-.609.47-.5.913-.977,1.344-1.028a2.851,2.851,0,0,1,.038.787A6.825,6.825,0,0,1,251.252,46.856Z" transform="translate(-243.935 -43.077)" fill="#a7396a"/><path d="M251.413,42.687a3.2,3.2,0,0,0-2.536,1.448c-.178.19-.343.368-.521.533a14.628,14.628,0,0,0-2.245,2.768,18.8,18.8,0,0,0-1.624,3.187,10.452,10.452,0,0,0-.9,5.015v.038a3.639,3.639,0,0,0,.14.66v.013l.254.749.457-.279h.013l.215-.14a4.678,4.678,0,0,0,.38-.279c.1-.089.215-.178.329-.279.178-.178.368-.381.571-.6l.114-.114c.228-.254.47-.533.71-.813.584-.7,1.192-1.473,1.713-2.171.634-.825,1.307-1.79,2.08-2.933a18.024,18.024,0,0,0,1.459-2.526,7.468,7.468,0,0,0,.419-2.134C252.554,43.169,251.945,42.75,251.413,42.687Z" transform="translate(-243.538 -42.679)" fill="#a7396a"/></g><g transform="translate(79.221 0.219)"><path d="M307.467,36.761a1.178,1.178,0,0,0-.685-.153,2.815,2.815,0,0,0-.761.2c-.521.2-1.053.521-1.56.724a12.126,12.126,0,0,0-1.522.749q-.762.457-1.484.991c-.482.355-.939.736-1.382,1.117a16.271,16.271,0,0,0-1.218,1.257,14.369,14.369,0,0,0-1.814,2.527,6.34,6.34,0,0,0-.609,1.523h-.012a.4.4,0,0,0-.038.166,2.922,2.922,0,0,0-.1.546,1.029,1.029,0,0,0,.14-.051c.037-.013.063-.025.1-.038.012-.012.025-.012.05-.012.14-.064.3-.153.482-.241l.076-.038c.2-.114.431-.241.685-.394.1-.051.2-.114.3-.178.406-.254.837-.533,1.307-.838s.939-.635,1.433-.952,1-.673,1.484-1.016c.507-.356.989-.7,1.445-1.015a19.775,19.775,0,0,0,2.233-1.752,8.886,8.886,0,0,0,1.179-1.625C307.569,37.6,307.8,36.951,307.467,36.761Zm-.825,1.18a8.018,8.018,0,0,1-1.052,1.486,20.551,20.551,0,0,1-2.169,1.689l-1.433,1.015c-.494.343-.989.673-1.484,1l-.3.2c-.393.254-.774.508-1.129.749-.457.3-.888.585-1.281.825-.191.114-.381.229-.559.33a6.884,6.884,0,0,1,.368-.762,13.18,13.18,0,0,1,1.725-2.413,14.939,14.939,0,0,1,1.179-1.193,16.068,16.068,0,0,1,1.332-1.092c.469-.343.951-.66,1.433-.953a10.742,10.742,0,0,1,1.446-.711c.241-.1.482-.228.736-.356s.532-.254.8-.368a2.211,2.211,0,0,1,.558-.153.6.6,0,0,1,.151.013A3.666,3.666,0,0,1,306.643,37.942Z" transform="translate(-295.584 -35.982)" fill="#a7396a"/><path d="M307.336,35.812a1.919,1.919,0,0,0-1.052-.216,3.258,3.258,0,0,0-.939.228c-.292.127-.6.266-.888.419-.228.114-.456.216-.672.318a14.061,14.061,0,0,0-1.611.787,17.948,17.948,0,0,0-1.534,1.028c-.47.356-.952.737-1.42,1.155a15.473,15.473,0,0,0-1.269,1.3,14.8,14.8,0,0,0-1.9,2.654,6.7,6.7,0,0,0-.736,1.942.079.079,0,0,0-.012.051,3.26,3.26,0,0,0-.076.495v.063l-.063.66-.012.178.076-.025.546-.14.063-.025.19-.051c.127-.038.267-.089.419-.152.088-.051.19-.1.291-.153.051-.025.114-.063.165-.089.178-.089.368-.19.583-.317a.229.229,0,0,0,.064-.025c.151-.089.317-.191.482-.292.139-.076.279-.165.431-.267.279-.178.583-.381.888-.584.354-.241.723-.5,1.1-.737l.329-.216c.495-.33,1-.673,1.5-1.016l1.433-1.016a20.859,20.859,0,0,0,2.321-1.816,8.939,8.939,0,0,0,1.281-1.777C307.983,36.98,308,36.18,307.336,35.812Z" transform="translate(-295.148 -35.591)" fill="#a7396a"/></g><g transform="translate(35.613 24.132)"><path d="M235.57,77.167a11.993,11.993,0,0,0-2.168-.8c-.444-.127-.913-.254-1.408-.356s-.976-.2-1.471-.279-.977-.14-1.459-.19c-.457-.038-.9-.063-1.319-.063-.241,0-.457,0-.66.012a3.033,3.033,0,0,0-.342.013,4.6,4.6,0,0,0-.469.038.225.225,0,0,1-.089.012l-.114.038a.694.694,0,0,0-.153.038.415.415,0,0,0,.1.114,2.8,2.8,0,0,0,.47.5h.012a6.076,6.076,0,0,0,.977.7,15.725,15.725,0,0,0,2.359,1.181,24.249,24.249,0,0,0,2.7.927c.457.127.9.228,1.345.318.216.038.431.076.647.1a5.425,5.425,0,0,0,.634.076c.406.038.862.153,1.268.191a1.7,1.7,0,0,0,.571-.025.884.884,0,0,0,.443-.279C237.816,78.969,236.142,77.459,235.57,77.167Zm.914,1.929c-.178-.012-.38-.05-.583-.076a4.263,4.263,0,0,0-.685-.1l-.6-.076c-.2-.038-.406-.063-.621-.1q-.629-.134-1.294-.3a24.568,24.568,0,0,1-2.626-.9,16.408,16.408,0,0,1-2.27-1.13c-.165-.1-.317-.2-.457-.292h.38c.406,0,.825.025,1.268.063.469.051.952.114,1.433.191s.963.165,1.42.267q.723.152,1.369.343a10.935,10.935,0,0,1,2.054.762,5.977,5.977,0,0,1,1.484,1.371A2.523,2.523,0,0,1,236.484,79.1Z" transform="translate(-224.917 -74.843)" fill="#a7396a"/><path d="M237.481,78.649c-.19-.94-1.763-2.2-2.245-2.438a12.533,12.533,0,0,0-2.283-.851c-.456-.127-.939-.254-1.446-.367s-1-.2-1.509-.28-1-.139-1.5-.19a13.221,13.221,0,0,0-1.37-.076h-.3c-.216,0-.419,0-.583.013-.051,0-.1.012-.14.012h-.013a4.319,4.319,0,0,0-.507.051c-.1.013-.19.025-.267.038-.114.038-.19.063-.254.089l-.343.127-.012.013-.418.153.495.673a4.35,4.35,0,0,0,.837.851,7.921,7.921,0,0,0,.9.622,16.878,16.878,0,0,0,2.448,1.232,27.117,27.117,0,0,0,2.765.94c.482.127.951.241,1.407.33l.66.114c.228.026.456.063.673.076a4.935,4.935,0,0,1,.583.089c.228.038.468.076.7.1a1.916,1.916,0,0,0,.266.012,1.87,1.87,0,0,0,.495-.063,1.445,1.445,0,0,0,.8-.483A.944.944,0,0,0,237.481,78.649Z" transform="translate(-224.291 -74.446)" fill="#a7396a"/></g><g transform="translate(12.653 47.635)"><path d="M203.79,114.112c-.672-.9-3.018-1.448-3.691-1.473h-.012a8.028,8.028,0,0,0-1.192.051c-.483.038-1,.089-1.573.178-.7.38-1.433.723-2.206,1.054-.013,0-.013.013-.025.013h-.013c-.393.165-.786.317-1.192.47a19.366,19.366,0,0,1-3.856.99h-.038a2.171,2.171,0,0,1-.279.038c.354-.317.812-.673,1.344-1.067a16.3,16.3,0,0,0-1.573.559c-.089.038-.164.063-.253.1h-.013c-.177.076-.342.152-.494.216-.3.152-.571.292-.787.419-.1.076-.2.152-.279.215l-.127.1-.1.076-.444.368.723.47c1.585,1.041,4.363,1.193,5.936,1.193h.1a21.711,21.711,0,0,0,7.192-1.193,6.016,6.016,0,0,1,.723-.229c.9-.266,2.029-.584,2.321-1.651A1.066,1.066,0,0,0,203.79,114.112Z" transform="translate(-186.985 -112.634)" fill="#a7396a"/></g><g transform="translate(12.868 43.413)"><path d="M202.719,106.1c-.926-.6-3.463-.241-4.134-.025a30.831,30.831,0,0,0-6.1,3.2c-.862.558-1.789,1.206-2.6,1.841-.279.216-.545.432-.786.635l-.013.013a8.338,8.338,0,0,0-1.116,1.1c-.051.076-.089.127-.127.19l-.177.279-.076.127-.254.407.7.114.254.038a3.062,3.062,0,0,0,.6.051h.025a1.836,1.836,0,0,0,.266.013,9.83,9.83,0,0,0,1.585-.14,20.9,20.9,0,0,0,3.69-.991,29.555,29.555,0,0,0,3.45-1.523c.469-.254.913-.508,1.319-.762.368-.216.685-.444,1-.673h.012c.241-.165.457-.33.66-.495a7.528,7.528,0,0,1,.622-.432c.774-.533,1.75-1.193,1.649-2.26A.968.968,0,0,0,202.719,106.1Z" transform="translate(-187.335 -105.773)" fill="#a7396a"/></g><g transform="translate(21.912 34.127)"><path d="M215.8,91.513a7.853,7.853,0,0,0-1.991-.749,12.354,12.354,0,0,0-2.689-.013c-.519.05-1.065.127-1.623.228a14.748,14.748,0,0,0-1.687.381c-.545.153-1.091.331-1.7.546l-.7.279q-.38.172-.723.343c-.089.051-.178.089-.266.14-.064.025-.127.063-.191.089-.279.152-.532.292-.748.431-.139.076-.266.165-.38.241a2.624,2.624,0,0,0-.47.369l-.076.076-.532.534.2.1a.012.012,0,0,1,.012.012l.545.292c.038.013.076.038.114.05a2.037,2.037,0,0,0,.444.191c.012.013.038.013.076.025a10.051,10.051,0,0,0,3.146.431,17.477,17.477,0,0,0,2.093-.127l.786-.05c.266-.013.545-.038.812-.051.545-.038,1.078-.089,1.56-.153q.8-.076,1.522-.19c.367-.076.71-.153,1.052-.228l.3-.076c.178-.038.381-.076.583-.1a5.442,5.442,0,0,0,.711-.14,1.451,1.451,0,0,0,.33-.1,1.481,1.481,0,0,0,.393-.2,1.259,1.259,0,0,0,.545-.825C217.388,92.668,216.919,92.109,215.8,91.513Z" transform="translate(-202.029 -90.686)" fill="#a7396a"/></g><g transform="translate(0 51.228)"><path d="M173.71,130.529c-.013-.114-.038-.228-.05-.343-.026-.177-.063-.356-.1-.546-.076-.368-.153-.787-.266-1.244-.076.686-.153,1.206-.228,1.6a1.947,1.947,0,0,0-.127-.228.047.047,0,0,0-.012-.038,12.9,12.9,0,0,1-.951-3.238c-.063-.356-.1-.724-.14-1.08a16.863,16.863,0,0,1-.089-1.777c0-.165,0-.318.012-.483a14.22,14.22,0,0,0-.532-1.384,9.662,9.662,0,0,0-.457-.952.286.286,0,0,1-.038-.063c-.368-.584-1.75-2.1-2.79-2.261a1,1,0,0,0-.888.241,2.734,2.734,0,0,0-.482,2.73c.038.216.076.431.1.635a13.653,13.653,0,0,0,.774,3.225,17.337,17.337,0,0,0,1.484,3.047,9.821,9.821,0,0,0,3.97,3.974l.761.318v-.012l.089-.66v-.013l.013-.14a3.507,3.507,0,0,0,.012-.647A4.427,4.427,0,0,0,173.71,130.529Z" transform="translate(-166.426 -118.472)" fill="#a7396a"/></g><g transform="translate(4.046 49.754)"><path d="M177.392,119.552c-.089-.584-.774-2.768-1.675-3.314a.963.963,0,0,0-.824-.114c-1,.355-1.192,1.447-1.345,2.323a4.882,4.882,0,0,1-.139.647,6.762,6.762,0,0,0-.153.737c-.076.343-.127.7-.178,1.066a13.88,13.88,0,0,0-.075,1.473,18.158,18.158,0,0,0,.253,3.4,14.689,14.689,0,0,0,.824,3.06,6.8,6.8,0,0,0,.8,1.511.114.114,0,0,0,.051.089,3.751,3.751,0,0,0,.431.545l.609.635.3-.546v-.013l.114-.216a3.393,3.393,0,0,0,.253-.7c.051-.191.1-.419.166-.724a34.728,34.728,0,0,0,.469-3.771c.114-1.308.177-2.4.19-3.339A17.809,17.809,0,0,0,177.392,119.552Z" transform="translate(-173 -116.077)" fill="#a7396a"/></g><g transform="translate(19.904 22.639)"><path d="M202.376,73.222c-.241-.711-.583-1.321-1-1.181-1.091.318-1.306,1.765-1.737,2.781a10.261,10.261,0,0,0-.519,1.676,10.056,10.056,0,0,0-.292,1.752,13.723,13.723,0,0,0,.114,3.479,10.925,10.925,0,0,0,1.559,4.38v.014a3.272,3.272,0,0,0,.495.583.728.728,0,0,0,.076-.178.19.19,0,0,0,.051-.114V86.4l.012-.012a1.281,1.281,0,0,0,.063-.127v-.012c.076-.229.152-.5.228-.813-.14.076-.266.165-.38.241a7.75,7.75,0,0,1-.1-1v-.05a1.2,1.2,0,0,0,.038-.114c.089-.457.166-.99.241-1.511s.152-1.079.216-1.651l.215-1.587v-.012c.051-.153.1-.305.152-.444a17.138,17.138,0,0,1,.711-1.638c.012-.025.037-.063.05-.089.076-.559.14-1.079.166-1.549a7.575,7.575,0,0,0,.05-.876A7.7,7.7,0,0,0,202.376,73.222Z" transform="translate(-198.767 -72.02)" fill="#a7396a"/></g><g transform="translate(21.433 22.938)"><path d="M203.006,84.6l-.215,1.587c-.064.572-.14,1.13-.216,1.651s-.152,1.054-.241,1.511a1.18,1.18,0,0,1-.038.114c-.012-.178-.012-.356-.012-.546a12.62,12.62,0,0,1,.1-1.512,15.782,15.782,0,0,1,.279-1.612c.063-.267.139-.546.215-.826A3.224,3.224,0,0,1,203.006,84.6Z" transform="translate(-201.648 -77.155)" fill="#a7396a"/><path d="M203.6,92.165c.064-.025.127-.063.191-.089-.089.166-.178.3-.266.445-.166.266-.318.482-.444.673a.013.013,0,0,0-.013.013,3.274,3.274,0,0,1-.38.419.583.583,0,0,1-.038-.14.069.069,0,0,1-.025-.063v-.012a2.694,2.694,0,0,1-.152-.572c.114-.076.241-.165.38-.241.05-.216.1-.444.152-.7a1.346,1.346,0,0,0,.012.228q.152-.247.343-.571c.114-.2.228-.419.355-.648l.14-.266c-.063.444-.127.876-.2,1.27C203.635,92,203.609,92.089,203.6,92.165Z" transform="translate(-201.72 -79.48)" fill="#a7396a"/><path d="M202.9,77.56a15.738,15.738,0,0,0-.723,1.7c-.114.292-.215.572-.3.876s-.153.584-.216.863a14.917,14.917,0,0,0-.3,1.676,13.782,13.782,0,0,0-.1,1.574,3.04,3.04,0,0,0,.013.343,7.186,7.186,0,0,0,.469.99c.051-.2.1-.444.165-.724v-.05a1.191,1.191,0,0,0,.038-.114c.089-.457.166-.99.241-1.511s.152-1.079.216-1.651l.215-1.587v-.012l.025-.165c.076-.572.153-1.156.2-1.7l.076-.533C202.913,77.547,202.9,77.547,202.9,77.56Zm0,0a15.738,15.738,0,0,0-.723,1.7c-.114.292-.215.572-.3.876s-.153.584-.216.863a14.917,14.917,0,0,0-.3,1.676,13.782,13.782,0,0,0-.1,1.574,3.04,3.04,0,0,0,.013.343,7.186,7.186,0,0,0,.469.99c.051-.2.1-.444.165-.724v-.05a1.191,1.191,0,0,0,.038-.114c.089-.457.166-.99.241-1.511s.152-1.079.216-1.651l.215-1.587v-.012l.025-.165c.076-.572.153-1.156.2-1.7l.076-.533C202.913,77.547,202.9,77.547,202.9,77.56Zm0,0a15.738,15.738,0,0,0-.723,1.7c-.114.292-.215.572-.3.876s-.153.584-.216.863a14.917,14.917,0,0,0-.3,1.676,13.782,13.782,0,0,0-.1,1.574,3.04,3.04,0,0,0,.013.343,7.186,7.186,0,0,0,.469.99c.051-.2.1-.444.165-.724v-.05a1.191,1.191,0,0,0,.038-.114c.089-.457.166-.99.241-1.511s.152-1.079.216-1.651l.215-1.587v-.012l.025-.165c.076-.572.153-1.156.2-1.7l.076-.533C202.913,77.547,202.9,77.547,202.9,77.56Zm0,0a15.738,15.738,0,0,0-.723,1.7c-.114.292-.215.572-.3.876s-.153.584-.216.863a14.917,14.917,0,0,0-.3,1.676,13.782,13.782,0,0,0-.1,1.574,3.04,3.04,0,0,0,.013.343,7.186,7.186,0,0,0,.469.99c.051-.2.1-.444.165-.724v-.05a1.191,1.191,0,0,0,.038-.114c.089-.457.166-.99.241-1.511s.152-1.079.216-1.651l.215-1.587v-.012l.025-.165c.076-.572.153-1.156.2-1.7l.076-.533C202.913,77.547,202.9,77.547,202.9,77.56Zm0,0a15.738,15.738,0,0,0-.723,1.7c-.114.292-.215.572-.3.876s-.153.584-.216.863a14.917,14.917,0,0,0-.3,1.676,13.782,13.782,0,0,0-.1,1.574,3.04,3.04,0,0,0,.013.343,7.186,7.186,0,0,0,.469.99c.051-.2.1-.444.165-.724v-.05a1.191,1.191,0,0,0,.038-.114c.089-.457.166-.99.241-1.511s.152-1.079.216-1.651l.215-1.587v-.012l.025-.165c.076-.572.153-1.156.2-1.7l.076-.533C202.913,77.547,202.9,77.547,202.9,77.56Zm0,0a15.738,15.738,0,0,0-.723,1.7c-.114.292-.215.572-.3.876s-.153.584-.216.863a14.917,14.917,0,0,0-.3,1.676,13.782,13.782,0,0,0-.1,1.574,3.04,3.04,0,0,0,.013.343,7.186,7.186,0,0,0,.469.99c.051-.2.1-.444.165-.724v-.05a1.191,1.191,0,0,0,.038-.114c.089-.457.166-.99.241-1.511s.152-1.079.216-1.651l.215-1.587v-.012l.025-.165c.076-.572.153-1.156.2-1.7l.076-.533C202.913,77.547,202.9,77.547,202.9,77.56Zm0,0a15.738,15.738,0,0,0-.723,1.7c-.114.292-.215.572-.3.876s-.153.584-.216.863a14.917,14.917,0,0,0-.3,1.676,13.782,13.782,0,0,0-.1,1.574,3.04,3.04,0,0,0,.013.343,7.186,7.186,0,0,0,.469.99c.051-.2.1-.444.165-.724v-.05a1.191,1.191,0,0,0,.038-.114c.089-.457.166-.99.241-1.511s.152-1.079.216-1.651l.215-1.587v-.012l.025-.165c.076-.572.153-1.156.2-1.7l.076-.533C202.913,77.547,202.9,77.547,202.9,77.56Zm0,0a15.738,15.738,0,0,0-.723,1.7c-.114.292-.215.572-.3.876s-.153.584-.216.863a14.917,14.917,0,0,0-.3,1.676,13.782,13.782,0,0,0-.1,1.574,3.04,3.04,0,0,0,.013.343,7.186,7.186,0,0,0,.469.99c.051-.2.1-.444.165-.724v-.05a1.191,1.191,0,0,0,.038-.114c.089-.457.166-.99.241-1.511s.152-1.079.216-1.651l.215-1.587v-.012l.025-.165c.076-.572.153-1.156.2-1.7l.076-.533C202.913,77.547,202.9,77.547,202.9,77.56Zm0,0a15.738,15.738,0,0,0-.723,1.7c-.114.292-.215.572-.3.876s-.153.584-.216.863a14.917,14.917,0,0,0-.3,1.676,13.782,13.782,0,0,0-.1,1.574,3.04,3.04,0,0,0,.013.343,7.186,7.186,0,0,0,.469.99c.051-.2.1-.444.165-.724v-.05a1.191,1.191,0,0,0,.038-.114c.089-.457.166-.99.241-1.511s.152-1.079.216-1.651l.215-1.587v-.012l.025-.165c.076-.572.153-1.156.2-1.7l.076-.533C202.913,77.547,202.9,77.547,202.9,77.56Zm0,0a15.738,15.738,0,0,0-.723,1.7c-.114.292-.215.572-.3.876s-.153.584-.216.863a14.917,14.917,0,0,0-.3,1.676,13.782,13.782,0,0,0-.1,1.574,3.04,3.04,0,0,0,.013.343,7.186,7.186,0,0,0,.469.99c.051-.2.1-.444.165-.724v-.05a1.191,1.191,0,0,0,.038-.114c.089-.457.166-.99.241-1.511s.152-1.079.216-1.651l.215-1.587v-.012l.025-.165c.076-.572.153-1.156.2-1.7l.076-.533C202.913,77.547,202.9,77.547,202.9,77.56Zm4.946-5.041c-1.1-.14-1.9.838-2.55,1.638-.126.152-.24.292-.355.431-.19.2-.38.432-.571.673a10.1,10.1,0,0,0-.685.952c-.242.394-.508.825-.774,1.321,0,.012-.012.012-.012.025a15.738,15.738,0,0,0-.723,1.7c-.114.292-.215.572-.3.876s-.153.584-.216.863a14.917,14.917,0,0,0-.3,1.676,13.782,13.782,0,0,0-.1,1.574,3.04,3.04,0,0,0,.013.343,6.764,6.764,0,0,0,.19,1.7v.014a3.765,3.765,0,0,0,.178.57l.165.419.178.445.266-.254.178-.165.228-.2.127-.127a9.193,9.193,0,0,0,1-1.409v-.012c.076-.114.139-.229.215-.356.1-.191.2-.381.317-.6.013-.026.038-.064.051-.089l.367-.66c.178-.343.355-.711.546-1.079l.989-1.918c.8-1.536,1.573-3,1.979-4a6.727,6.727,0,0,0,.241-.927,11.158,11.158,0,0,0,.2-1.193C208.748,74.183,208.913,72.684,207.847,72.52ZM202.9,77.56a15.738,15.738,0,0,0-.723,1.7c-.114.292-.215.572-.3.876s-.153.584-.216.863a14.917,14.917,0,0,0-.3,1.676,13.782,13.782,0,0,0-.1,1.574,3.04,3.04,0,0,0,.013.343,7.186,7.186,0,0,0,.469.99c.051-.2.1-.444.165-.724v-.05a1.191,1.191,0,0,0,.038-.114c.089-.457.166-.99.241-1.511s.152-1.079.216-1.651l.215-1.587v-.012l.025-.165c.076-.572.153-1.156.2-1.7l.076-.533C202.913,77.547,202.9,77.547,202.9,77.56Zm0,0a15.738,15.738,0,0,0-.723,1.7c-.114.292-.215.572-.3.876s-.153.584-.216.863a14.917,14.917,0,0,0-.3,1.676,13.782,13.782,0,0,0-.1,1.574,3.04,3.04,0,0,0,.013.343,7.186,7.186,0,0,0,.469.99c.051-.2.1-.444.165-.724v-.05a1.191,1.191,0,0,0,.038-.114c.089-.457.166-.99.241-1.511s.152-1.079.216-1.651l.215-1.587v-.012l.025-.165c.076-.572.153-1.156.2-1.7l.076-.533C202.913,77.547,202.9,77.547,202.9,77.56Zm0,0a15.738,15.738,0,0,0-.723,1.7c-.114.292-.215.572-.3.876s-.153.584-.216.863a14.917,14.917,0,0,0-.3,1.676,13.782,13.782,0,0,0-.1,1.574,3.04,3.04,0,0,0,.013.343,7.186,7.186,0,0,0,.469.99c.051-.2.1-.444.165-.724v-.05a1.191,1.191,0,0,0,.038-.114c.089-.457.166-.99.241-1.511s.152-1.079.216-1.651l.215-1.587v-.012l.025-.165c.076-.572.153-1.156.2-1.7l.076-.533C202.913,77.547,202.9,77.547,202.9,77.56Zm0,0a15.738,15.738,0,0,0-.723,1.7c-.114.292-.215.572-.3.876s-.153.584-.216.863a14.917,14.917,0,0,0-.3,1.676,13.782,13.782,0,0,0-.1,1.574,3.04,3.04,0,0,0,.013.343,7.186,7.186,0,0,0,.469.99c.051-.2.1-.444.165-.724v-.05a1.191,1.191,0,0,0,.038-.114c.089-.457.166-.99.241-1.511s.152-1.079.216-1.651l.215-1.587v-.012l.025-.165c.076-.572.153-1.156.2-1.7l.076-.533C202.913,77.547,202.9,77.547,202.9,77.56Zm0,0a15.738,15.738,0,0,0-.723,1.7c-.114.292-.215.572-.3.876s-.153.584-.216.863a14.917,14.917,0,0,0-.3,1.676,13.782,13.782,0,0,0-.1,1.574,3.04,3.04,0,0,0,.013.343,7.186,7.186,0,0,0,.469.99c.051-.2.1-.444.165-.724v-.05a1.191,1.191,0,0,0,.038-.114c.089-.457.166-.99.241-1.511s.152-1.079.216-1.651l.215-1.587v-.012l.025-.165c.076-.572.153-1.156.2-1.7l.076-.533C202.913,77.547,202.9,77.547,202.9,77.56Zm0,0a15.738,15.738,0,0,0-.723,1.7c-.114.292-.215.572-.3.876s-.153.584-.216.863a14.917,14.917,0,0,0-.3,1.676,13.782,13.782,0,0,0-.1,1.574,3.04,3.04,0,0,0,.013.343,7.186,7.186,0,0,0,.469.99c.051-.2.1-.444.165-.724v-.05a1.191,1.191,0,0,0,.038-.114c.089-.457.166-.99.241-1.511s.152-1.079.216-1.651l.215-1.587v-.012l.025-.165c.076-.572.153-1.156.2-1.7l.076-.533C202.913,77.547,202.9,77.547,202.9,77.56Zm0,0a15.738,15.738,0,0,0-.723,1.7c-.114.292-.215.572-.3.876s-.153.584-.216.863a14.917,14.917,0,0,0-.3,1.676,13.782,13.782,0,0,0-.1,1.574,3.04,3.04,0,0,0,.013.343,7.186,7.186,0,0,0,.469.99c.051-.2.1-.444.165-.724v-.05a1.191,1.191,0,0,0,.038-.114c.089-.457.166-.99.241-1.511s.152-1.079.216-1.651l.215-1.587v-.012l.025-.165c.076-.572.153-1.156.2-1.7l.076-.533C202.913,77.547,202.9,77.547,202.9,77.56Zm0,0a15.738,15.738,0,0,0-.723,1.7c-.114.292-.215.572-.3.876s-.153.584-.216.863a14.917,14.917,0,0,0-.3,1.676,13.782,13.782,0,0,0-.1,1.574,3.04,3.04,0,0,0,.013.343,7.186,7.186,0,0,0,.469.99c.051-.2.1-.444.165-.724v-.05a1.191,1.191,0,0,0,.038-.114c.089-.457.166-.99.241-1.511s.152-1.079.216-1.651l.215-1.587v-.012l.025-.165c.076-.572.153-1.156.2-1.7l.076-.533C202.913,77.547,202.9,77.547,202.9,77.56Zm0,0a15.738,15.738,0,0,0-.723,1.7c-.114.292-.215.572-.3.876s-.153.584-.216.863a14.917,14.917,0,0,0-.3,1.676,13.782,13.782,0,0,0-.1,1.574,3.04,3.04,0,0,0,.013.343,7.186,7.186,0,0,0,.469.99c.051-.2.1-.444.165-.724v-.05a1.191,1.191,0,0,0,.038-.114c.089-.457.166-.99.241-1.511s.152-1.079.216-1.651l.215-1.587v-.012l.025-.165c.076-.572.153-1.156.2-1.7l.076-.533C202.913,77.547,202.9,77.547,202.9,77.56Z" transform="translate(-201.252 -72.506)" fill="#a7396a"/></g><path d="M188.283,96.184c-.076-.647-.748-2.793-1.674-3.365a1.016,1.016,0,0,0-.926-.114c-1.065.393-1.331,1.511-1.534,2.4-.063.241-.114.47-.19.7a17.149,17.149,0,0,0-.571,7,10.911,10.911,0,0,0,1.573,4.863c.012.025.025.038.025.051a4.337,4.337,0,0,0,.431.508l.012.013.558.571.292-.483h.012l.127-.216a3.881,3.881,0,0,0,.215-.406c.038-.114.089-.241.139-.381.076-.228.153-.508.241-.787.013-.051.026-.1.038-.152v-.013c.076-.3.165-.647.228-1,.2-.9.368-1.892.508-2.768A32.643,32.643,0,0,0,188.283,96.184Z" transform="translate(-172.9 -57.311)" fill="#a7396a"/><g transform="translate(5.541 61.924)"><path d="M187.072,136.942a21.041,21.041,0,0,0-5.4.381,24.957,24.957,0,0,0-2.79.622c-.229.063-.444.14-.647.2-.114.051-.241.089-.342.127-.165.063-.318.127-.444.19v.013a.11.11,0,0,0-.076.038.376.376,0,0,0-.1.05,1.1,1.1,0,0,0-.127.076.612.612,0,0,0,.114.076,2.812,2.812,0,0,0,.609.343v.012a11.677,11.677,0,0,0,3.831.838,17.033,17.033,0,0,0,5.733-.483c.837-.228,1.966-.228,2.232-.99C189.875,137.843,187.719,137.006,187.072,136.942Zm.875,1.727c-.241.051-.483.1-.7.153a16.412,16.412,0,0,1-5.5.457,12.174,12.174,0,0,1-3.132-.584c.126-.038.279-.089.443-.139a26.386,26.386,0,0,1,2.728-.61,21.662,21.662,0,0,1,5.212-.381,5.862,5.862,0,0,1,1.941.812A3.25,3.25,0,0,1,187.947,138.669Z" transform="translate(-176.088 -136.249)" fill="#a7396a"/><path d="M189.5,137.433c-.507-.812-2.461-1.46-3.006-1.523a21.943,21.943,0,0,0-5.58.381,28.415,28.415,0,0,0-2.866.647c-.1.025-.215.063-.3.089q-.323.1-.57.191c-.038.013-.089.038-.127.05-.178.064-.343.14-.482.2-.089.051-.178.089-.241.127a1.606,1.606,0,0,0-.215.14l-.292.215-.038.025-.343.254.66.521a3.4,3.4,0,0,0,.812.47.871.871,0,0,0,.215.114,13.338,13.338,0,0,0,3.868.812c.508.039,1,.051,1.5.051a16.873,16.873,0,0,0,4.452-.546,4.552,4.552,0,0,1,.6-.14c.774-.153,1.75-.343,2.067-1.244A.948.948,0,0,0,189.5,137.433Z" transform="translate(-175.43 -135.851)" fill="#a7396a"/></g></g></g></svg>